<svg xmlns="http://www.w3.org/2000/svg" viewBox="0 0 1200 300">
  <defs>
    <filter id="glow">
      <feGaussianBlur stdDeviation="0.5" result="blur"/>
      <feMerge>
        <feMergeNode in="blur"/>
        <feMergeNode in="SourceGraphic"/>
      </feMerge>
    </filter>
  </defs>
  <!-- Background transparent -->
  <rect width="1200" height="300" fill="transparent"/>
  <g stroke="#000000" fill="none" stroke-linecap="round" stroke-linejoin="round" filter="url(#glow)">
<path d="M50.0,168.8 Q63.3,165.3 70.2,164.0 Q84.7,162.1 90.9,164.0 Q97.5,169.5 110.1,171.9 Q113.9,181.9 125.6,185.6 Q129.6,193.8 142.3,198.0 Q150.3,206.1 160.3,208.2 Q169.4,218.7 175.3,222.5 Q181.9,234.7 189.2,237.9 Q192.3,248.9 199.2,256.0 Q200.5,263.9 202.6,276.5 Q202.4,286.3 210.8,295.5 Q214.8,300.8 217.2,315.3 Q222.7,326.1 225.0,334.5 Q228.9,341.5 230.1,354.6 Q233.8,368.2 238.5,373.5 Q238.5,386.7 242.2,393.9 Q242.4,407.1 244.1,414.6 Q247.3,425.5 245.1,435.3" stroke-width="7.9" />
<path d="M244.2,429.8 Q244.7,440.9 251.6,448.6 Q255.4,459.4 255.2,468.4 Q248.4,478.6 251.2,488.2 Q250.4,502.4 246.5,507.8 Q245.4,518.5 238.3,526.2 Q238.1,540.5 233.7,545.9 Q226.5,550.2 223.1,563.0 Q218.6,569.4 213.3,580.7 Q208.3,589.1 210.3,600.6 Q211.2,605.6 204.0,619.8 Q207.2,625.3 200.9,639.7 Q198.5,646.8 198.5,659.7 Q197.5,667.1 193.6,679.3 Q189.8,688.3 193.2,699.4" stroke-width="4.8" />
<path d="M193.6,674.2 Q190.3,687.7 193.0,696.0 Q190.8,703.4 190.3,717.6 Q191.1,726.7 188.1,739.3 Q192.0,751.3 194.0,760.4 Q202.9,770.7 203.0,780.2 Q209.0,788.2 207.4,801.6" stroke-width="2.9" />
<path d="M201.6,790.4 Q193.5,801.4 189.9,807.5 Q186.9,816.1 179.8,825.6 Q174.5,840.2 177.5,846.1 Q179.6,860.5 175.3,866.7" stroke-width="1.7" />
<path d="M177.2,860.9 Q186.3,866.6 192.1,876.2 Q201.8,882.4 207.2,891.5 Q213.5,902.7 224.2,904.5" stroke-width="1.0" />
<path d="M203.0,801.0 Q197.2,813.3 198.2,820.6 Q196.8,833.1 191.2,839.6 Q191.0,850.9 184.8,858.8 Q175.0,866.8 174.6,876.3 Q163.7,880.3 160.7,891.0" stroke-width="1.7" />
<path d="M174.3,886.7 Q170.0,896.5 173.4,913.0 Q170.6,927.0 169.6,939.0" stroke-width="1.0" />
<path d="M162.2,889.5 Q150.1,895.3 145.2,905.7 Q132.5,917.7 129.8,923.5 Q117.1,929.8 109.5,935.4" stroke-width="1.0" />
<path d="M179.7,872.6 Q168.0,869.5 156.5,875.6 Q139.9,876.6 133.1,875.6" stroke-width="1.0" />
<path d="M193.3,684.5 Q186.0,690.7 185.0,705.5 Q188.2,718.0 182.1,727.8 Q174.7,735.6 174.2,748.9 Q165.2,756.4 164.6,769.3 Q157.7,785.0 160.4,791.5 Q160.6,798.6 155.7,813.5 Q148.1,818.7 144.0,832.8" stroke-width="2.9" />
<path d="M159.5,832.2 Q150.8,841.0 140.2,841.7 Q135.8,843.7 123.5,855.3 Q112.3,859.0 103.0,862.1 Q95.3,856.5 81.5,860.9" stroke-width="1.7" />
<path d="M94.5,861.7 Q82.5,867.9 68.5,871.8 Q59.9,872.2 42.1,880.7" stroke-width="1.0" />
<path d="M106.2,862.4 Q96.7,861.9 86.5,869.7 Q75.8,866.3 65.5,869.9" stroke-width="1.0" />
<path d="M83.1,862.3 Q70.9,868.8 64.6,884.1 Q56.5,895.7 45.8,905.8" stroke-width="1.0" />
<path d="M158.4,830.2 Q147.6,841.0 141.2,844.3 Q128.3,846.4 120.3,852.1 Q110.9,854.8 98.6,856.6" stroke-width="1.7" />
<path d="M124.3,851.2 Q116.0,858.2 114.8,865.3 Q113.0,870.9 105.4,879.5" stroke-width="1.0" />
<path d="M102.3,854.3 Q87.5,856.8 81.1,862.8 Q72.2,871.1 61.9,875.3" stroke-width="1.0" />
<path d="M111.3,856.5 Q102.3,851.2 101.5,841.5 Q96.9,828.8 93.2,825.5" stroke-width="1.0" />
<path d="M158.8,831.4 Q144.9,841.7 140.1,842.9 Q131.0,851.5 120.5,852.6 Q111.0,853.6 99.2,857.8 Q91.2,866.4 79.1,866.4 Q72.8,866.0 57.2,867.8" stroke-width="1.7" />
<path d="M75.6,866.1 Q65.9,858.3 57.5,852.5 Q49.6,843.4 38.9,839.6" stroke-width="1.0" />
<path d="M67.7,866.3 Q57.8,861.9 47.7,862.2 Q41.1,857.4 27.7,858.9 Q22.4,858.1 8.3,852.7" stroke-width="1.0" />
<path d="M244.3,426.0 Q243.9,441.1 244.2,446.1 Q243.3,452.6 243.7,466.2 Q247.0,477.3 240.4,486.0 Q243.4,498.8 239.5,506.1 Q232.9,513.1 231.8,524.7 Q231.1,537.0 222.2,542.4 Q218.5,553.6 218.6,562.1 Q212.4,573.8 214.0,581.7 Q205.7,593.2 203.5,598.9 Q196.8,612.0 191.8,615.2 Q187.6,625.9 175.9,627.5 Q165.8,637.9 165.5,644.7 Q154.9,653.6 154.1,661.2 Q146.6,663.2 138.7,674.2" stroke-width="4.8" />
<path d="M150.2,667.6 Q144.3,668.5 129.3,663.6 Q122.0,662.8 108.0,662.8 Q97.6,654.8 88.3,654.6 Q82.1,659.4 67.0,654.2 Q58.9,648.0 46.1,650.2 Q33.2,649.1 25.8,643.4 Q15.5,641.4 4.6,642.2" stroke-width="2.9" />
<path d="M23.4,643.9 Q13.0,647.7 4.0,652.9 Q-3.0,651.9 -17.3,655.3 Q-23.9,655.9 -37.9,661.1" stroke-width="1.7" />
<path d="M-12.8,656.9 Q-26.2,659.0 -33.2,661.0 Q-38.1,667.9 -52.9,667.8" stroke-width="1.0" />
<path d="M-16.2,658.9 Q-22.0,662.5 -33.0,659.4 Q-38.4,661.3 -49.6,656.1" stroke-width="1.0" />
<path d="M-13.0,655.9 Q-21.5,663.9 -32.4,670.2 Q-37.9,683.9 -48.3,688.2" stroke-width="1.0" />
<path d="M9.7,642.7 Q-2.8,645.8 -11.9,657.9 Q-16.0,669.6 -28.5,678.4 Q-31.2,687.2 -39.9,702.2" stroke-width="1.7" />
<path d="M-37.1,701.7 Q-41.2,714.3 -42.2,719.5 Q-42.4,726.6 -48.4,737.0" stroke-width="1.0" />
<path d="M-34.5,680.6 Q-29.6,690.1 -29.5,700.1 Q-27.8,709.6 -26.5,720.1" stroke-width="1.0" />
<path d="M-37.0,690.9 Q-38.3,701.9 -47.1,709.7 Q-52.7,717.3 -50.6,730.7" stroke-width="1.0" />
<path d="M28.4,642.2 Q16.6,649.6 7.7,655.2 Q-2.7,661.1 -10.2,671.8 Q-18.1,673.3 -32.4,681.9" stroke-width="1.7" />
<path d="M-11.5,675.3 Q-16.3,669.2 -25.8,671.3 Q-35.5,669.9 -40.1,667.4" stroke-width="1.0" />
<path d="M245.1,427.9 Q232.8,437.8 226.4,439.3 Q215.2,441.1 206.3,447.9 Q201.6,455.6 188.6,460.8 Q176.7,468.3 168.7,470.0 Q156.2,467.7 147.2,473.7 Q133.5,478.5 128.4,485.0 Q120.7,492.4 110.2,497.1 Q97.2,504.3 91.9,509.0 Q80.0,508.6 70.9,515.0" stroke-width="4.8" />
<path d="M78.8,509.5 Q66.8,512.2 58.4,518.1 Q52.6,523.3 36.8,523.2 Q23.3,523.5 15.3,528.7 Q2.3,531.7 -6.8,528.1 Q-19.9,530.8 -28.3,533.7" stroke-width="2.9" />
<path d="M-5.5,526.9 Q-20.2,522.5 -29.4,523.2 Q-39.3,527.8 -53.0,528.3" stroke-width="1.7" />
<path d="M-45.9,523.1 Q-58.2,523.7 -61.5,518.7 Q-67.5,522.1 -77.7,516.7" stroke-width="1.0" />
<path d="M-45.0,524.3 Q-55.9,534.4 -57.5,536.8 Q-60.4,538.0 -73.1,545.2" stroke-width="1.0" />
<path d="M-47.8,523.9 Q-49.8,523.7 -58.6,529.5 Q-64.1,535.8 -69.6,534.6" stroke-width="1.0" />
<path d="M85.3,507.5 Q75.4,508.0 67.6,517.4 Q59.2,517.5 47.7,521.1 Q40.7,520.4 27.7,524.6 Q13.9,530.8 9.2,532.7 Q0.8,534.9 -9.5,540.7 Q-23.8,539.5 -28.8,546.8 Q-37.9,544.8 -48.9,549.4" stroke-width="2.9" />
<path d="M-38.7,548.1 Q-47.2,540.9 -57.6,530.3 Q-64.0,517.8 -69.1,506.9 Q-75.7,499.6 -78.5,482.7" stroke-width="1.7" />
<path d="M-72.0,486.7 Q-66.8,470.9 -67.4,460.9 Q-71.9,450.2 -69.2,434.7" stroke-width="1.0" />
<path d="M50.0,218.3 Q59.2,218.8 69.8,215.0 Q76.3,208.6 89.5,210.9 Q98.9,204.5 106.0,199.5 Q116.8,199.8 124.6,191.9 Q136.3,183.3 140.2,179.2 Q147.0,169.5 152.0,163.0 Q160.8,158.2 166.4,148.9 Q170.4,142.0 178.5,132.9 Q184.2,126.5 187.7,115.0 Q196.4,100.9 195.0,96.3 Q204.4,88.6 204.5,78.6 Q206.0,69.2 211.8,59.9 Q212.7,48.1 220.9,42.0 Q223.3,36.2 224.6,22.3 Q227.9,10.3 224.2,2.2 Q225.4,-6.7 230.1,-17.0 Q241.0,-22.5 242.8,-32.6 Q254.0,-42.8 259.7,-43.4 Q266.6,-47.6 278.2,-51.2" stroke-width="7.1" />
<path d="M257.9,-41.8 Q265.2,-41.7 277.6,-36.8 Q289.6,-35.6 298.0,-36.3 Q306.2,-31.2 318.3,-35.3 Q332.7,-37.2 338.3,-31.2 Q345.6,-25.3 355.1,-19.7 Q366.6,-15.2 372.9,-9.8 Q382.3,-0.5 386.8,5.1 Q394.5,6.7 405.1,14.0" stroke-width="4.2" />
<path d="M390.4,7.1 Q399.2,18.1 398.9,26.3 Q407.5,38.4 410.9,43.6 Q414.1,48.2 425.1,59.2 Q435.7,68.9 439.2,74.7" stroke-width="2.5" />
<path d="M432.0,68.6 Q444.5,72.6 451.2,80.6 Q466.8,79.0 473.3,85.7" stroke-width="1.5" />
<path d="M450.2,80.4 Q456.4,81.8 462.6,89.1 Q465.0,93.4 475.3,97.4" stroke-width="0.9" />
<path d="M472.0,79.0 Q475.4,78.0 482.0,74.8 Q490.9,69.7 492.3,71.6" stroke-width="0.9" />
<path d="M420.1,54.7 Q419.3,70.8 427.3,83.7 Q429.4,100.6 437.5,111.8" stroke-width="1.5" />
<path d="M429.7,90.2 Q427.3,93.1 427.6,102.1 Q426.5,104.7 427.7,114.1" stroke-width="0.9" />
<path d="M436.5,109.7 Q444.6,118.7 447.1,118.0 Q451.4,120.4 459.9,122.2" stroke-width="0.9" />
<path d="M439.0,68.9 Q442.3,83.7 439.0,89.7 Q437.4,101.8 434.2,109.9 Q427.5,120.5 428.3,129.8" stroke-width="1.5" />
<path d="M436.7,102.5 Q435.5,109.2 442.1,115.8 Q443.4,122.4 449.4,128.2" stroke-width="0.9" />
<path d="M389.9,13.5 Q392.4,21.5 397.8,32.3 Q403.4,40.0 406.0,51.0 Q413.4,63.0 413.5,70.0 Q412.1,81.2 414.4,90.4 Q408.7,96.6 408.3,109.9 Q404.9,123.9 409.1,130.4" stroke-width="2.5" />
<path d="M408.3,111.6 Q404.7,121.8 404.2,132.8 Q404.0,138.8 399.1,153.8 Q395.1,163.1 390.4,173.7" stroke-width="1.5" />
<path d="M391.0,170.6 Q386.7,179.0 374.0,183.3 Q362.8,191.8 355.3,193.2" stroke-width="0.9" />
<path d="M395.2,168.1 Q383.8,172.8 377.7,178.3 Q366.8,182.1 359.0,186.2" stroke-width="0.9" />
<path d="M409.1,119.2 Q412.1,130.6 411.3,144.3 Q407.4,161.4 404.8,168.7" stroke-width="1.5" />
<path d="M408.4,156.2 Q400.5,160.4 400.2,174.0 Q400.8,187.5 392.9,192.2" stroke-width="0.9" />
<path d="M401.8,10.5 Q417.0,11.2 425.6,9.2 Q435.8,8.6 448.7,3.4 Q455.1,-3.9 470.5,-6.4" stroke-width="2.5" />
<path d="M457.5,4.4 Q466.3,-0.1 482.6,-8.3 Q496.3,-18.3 503.2,-27.4" stroke-width="1.5" />
<path d="M498.8,-9.5 Q509.8,-11.9 515.1,-15.3 Q528.0,-13.7 531.7,-20.6" stroke-width="0.9" />
<path d="M269.2,-42.5 Q281.6,-41.9 288.9,-35.9 Q298.1,-34.6 309.6,-34.3 Q317.0,-40.8 329.6,-39.7 Q341.0,-38.8 349.0,-46.9 Q361.8,-53.8 366.7,-57.7 Q381.3,-57.9 387.0,-62.2 Q393.7,-68.2 407.3,-66.4 Q412.2,-75.6 425.5,-76.3 Q430.1,-86.1 443.3,-86.8 Q455.1,-98.5 457.1,-102.3 Q461.1,-109.7 470.2,-118.4" stroke-width="4.2" />
<path d="M465.5,-113.0 Q458.1,-121.6 456.8,-133.3 Q450.2,-141.5 448.5,-153.7 Q443.2,-167.1 439.8,-174.0 Q436.9,-177.6 424.3,-189.7 Q421.2,-199.1 408.7,-205.3 Q398.4,-213.9 394.6,-222.3 Q391.3,-231.9 382.8,-240.9" stroke-width="2.5" />
<path d="M390.2,-223.6 Q385.0,-231.0 382.9,-243.3 Q377.9,-251.4 375.6,-263.0 Q364.5,-272.6 362.2,-279.2" stroke-width="1.5" />
<path d="M372.4,-273.1 Q359.7,-276.8 355.7,-288.4 Q345.9,-294.8 336.3,-300.2" stroke-width="0.9" />
<path d="M363.3,-276.2 Q348.8,-281.1 343.3,-288.6 Q334.3,-294.7 320.2,-293.3" stroke-width="0.9" />
<path d="M383.2,-227.9 Q382.8,-236.5 382.3,-248.0 Q375.0,-261.3 373.7,-266.2 Q365.3,-271.9 364.4,-284.0 Q354.4,-293.9 350.6,-298.6 Q346.9,-308.1 338.0,-314.2 Q336.9,-323.0 329.7,-332.5" stroke-width="1.5" />
<path d="M331.2,-307.8 Q322.2,-314.5 314.7,-326.2 Q307.6,-335.1 297.7,-344.1 Q286.4,-350.1 278.4,-359.6" stroke-width="0.9" />
<path d="M333.6,-325.5 Q319.4,-328.1 313.7,-339.3 Q303.4,-351.7 300.1,-359.4 Q297.3,-369.4 289.7,-381.3" stroke-width="0.9" />
<path d="M50.0,125.7 Q55.7,128.8 69.1,133.6 Q81.3,137.4 86.4,144.8 Q91.4,152.3 103.6,156.4 Q116.4,165.0 119.4,169.6 Q122.4,172.8 134.3,183.9 Q141.2,196.4 145.0,201.6 Q145.7,213.5 153.5,220.4 Q156.3,228.5 166.9,236.1 Q171.1,243.8 179.6,252.4 Q181.6,262.5 193.4,267.8 Q199.3,281.6 203.4,285.9 Q211.6,298.6 212.4,304.5 Q217.4,309.9 220.1,323.7 Q220.0,333.0 227.6,342.9 Q235.9,348.9 236.8,361.4 Q239.1,373.6 250.2,377.1 Q260.5,381.1 268.4,386.9 Q281.0,389.8 288.2,392.7 Q294.2,393.9 304.9,404.9 Q311.1,410.6 324.6,411.1 Q328.9,415.6 340.5,424.2 Q349.5,431.5 360.1,430.9 Q364.3,437.6 378.3,440.6 Q390.3,440.5 396.9,449.6" stroke-width="5.4" />
<path d="M383.5,438.0 Q395.5,433.1 403.9,436.1 Q410.7,430.7 423.1,429.0 Q429.1,424.4 440.8,418.7 Q450.4,412.9 460.6,413.6 Q467.4,414.5 481.0,413.5 Q490.5,411.0 500.5,407.2 Q508.8,398.8 516.1,394.0 Q527.7,387.9 531.1,380.1 Q531.2,375.6 540.5,361.9 Q546.6,354.2 551.9,345.0 Q557.0,342.9 569.1,333.8 Q582.6,328.4 587.0,323.9 Q593.6,318.6 601.1,309.1 Q602.4,296.4 611.2,291.3 Q615.8,285.7 626.6,277.9" stroke-width="3.3" />
<path d="M624.6,284.0 Q630.3,272.6 632.3,264.7 Q629.9,254.5 633.7,244.0 Q628.7,236.6 628.2,223.9 Q620.2,214.0 618.3,205.6 Q621.0,194.7 615.5,185.0 Q613.2,179.1 612.5,164.4 Q614.2,149.7 610.0,143.7 Q607.7,132.0 611.9,123.0 Q608.1,110.8 613.7,102.3" stroke-width="2.0" />
<path d="M611.2,123.1 Q606.1,114.6 591.9,110.0 Q576.2,110.5 569.4,103.4 Q555.8,100.8 546.2,100.7 Q538.1,94.0 523.2,96.4 Q514.4,96.8 500.1,92.4" stroke-width="1.2" />
<path d="M507.2,94.1 Q497.9,85.1 489.0,83.9 Q479.0,72.8 476.2,67.5 Q465.0,59.7 461.2,53.1" stroke-width="0.7" />
<path d="M612.3,119.2 Q614.1,103.8 608.0,97.7 Q605.9,85.1 605.5,76.0 Q605.4,64.0 601.2,54.5 Q605.9,47.2 604.4,32.8 Q608.3,18.8 606.1,11.0 Q608.4,4.3 613.2,-9.7" stroke-width="1.2" />
<path d="M610.8,7.0 Q614.5,-2.4 613.1,-17.1 Q611.8,-28.5 608.8,-41.0 Q603.9,-55.4 606.6,-65.1 Q601.4,-78.8 603.1,-89.1" stroke-width="0.7" />
<path d="M392.1,441.5 Q393.0,448.0 390.0,462.2 Q391.4,470.1 386.4,482.7 Q380.9,493.7 380.6,502.6 Q383.5,510.2 383.0,523.3 Q385.7,529.2 381.4,544.0 Q376.2,557.6 373.8,563.4 Q368.1,574.8 362.6,580.9 Q353.9,588.6 349.2,596.8 Q341.5,604.7 334.2,611.2 Q327.5,617.2 320.9,627.2 Q314.4,629.7 304.7,640.3 Q291.7,650.1 288.7,653.5" stroke-width="3.3" />
<path d="M304.0,649.1 Q306.1,654.9 300.3,669.3 Q303.5,680.2 300.1,689.8 Q299.7,698.5 302.7,710.1 Q303.7,717.2 312.8,727.9 Q321.8,738.4 323.1,745.6 Q328.5,757.7 326.8,765.7 Q330.4,777.8 327.8,786.2 Q325.7,797.6 326.0,806.6 Q323.7,815.6 329.9,826.7" stroke-width="2.0" />
<path d="M327.3,800.5 Q332.1,811.2 339.3,820.1 Q349.9,826.3 354.3,837.5 Q363.8,851.6 366.8,856.7 Q378.3,870.6 380.4,875.2 Q386.7,884.5 394.4,893.4 Q402.5,904.5 406.0,913.2" stroke-width="1.2" />
<path d="M392.8,910.8 Q400.1,914.5 411.3,919.5 Q424.6,920.5 431.7,921.3 Q444.1,926.4 451.5,926.2" stroke-width="0.7" />
<path d="M329.8,816.9 Q324.5,825.2 319.5,834.8 Q314.1,846.2 314.7,854.9 Q312.2,865.1 302.7,871.7 Q301.2,883.9 294.4,890.6 Q287.0,899.6 280.0,905.5 Q273.0,919.5 270.9,924.1 Q263.3,937.2 258.2,940.4" stroke-width="1.2" />
<path d="M263.4,923.0 Q254.3,934.6 250.1,943.2 Q247.6,951.4 235.9,962.8 Q230.6,973.0 216.7,977.6 Q202.7,986.4 195.8,989.7" stroke-width="0.7" />
<path d="M260.5,926.9 Q246.2,928.4 240.4,936.0 Q231.0,943.4 224.9,951.7 Q224.2,963.3 213.7,970.6 Q202.1,979.5 197.3,985.4 Q193.5,991.8 182.6,1001.8" stroke-width="0.7" />
<path d="M325.3,817.6 Q326.1,825.1 325.9,837.7 Q322.2,848.8 322.1,857.5 Q321.9,863.2 321.3,877.6 Q321.4,889.6 323.7,897.6 Q322.1,908.0 329.3,916.9 Q337.2,926.8 338.7,934.7 Q348.0,940.8 350.6,950.9" stroke-width="1.2" />
<path d="M349.1,927.6 Q359.8,931.6 371.8,937.4 Q378.9,942.9 390.9,953.1 Q398.5,963.0 409.9,969.0" stroke-width="0.7" />
<path d="M347.7,939.5 Q355.5,951.1 372.8,953.8 Q391.9,961.3 401.2,958.8" stroke-width="0.7" />
<path d="M342.1,932.4 Q356.7,934.4 362.9,937.0 Q368.5,939.0 380.9,948.5 Q385.8,957.0 398.7,960.3 Q409.3,968.6 417.3,970.8" stroke-width="0.7" />
<path d="M393.2,442.9 Q400.5,445.7 414.0,439.3 Q428.2,438.5 435.0,440.7 Q444.9,443.1 456.0,442.6 Q471.3,445.9 476.9,445.1 Q489.4,450.3 497.9,446.4 Q510.3,447.9 518.7,442.7 Q530.1,441.4 539.8,442.2 Q548.7,443.0 560.6,445.2 Q575.0,446.8 580.5,452.2 Q588.2,457.4 599.2,461.9 Q605.6,465.3 619.5,467.7" stroke-width="3.3" />
<path d="M597.2,462.0 Q612.0,466.4 617.4,465.2 Q626.5,464.1 637.9,465.3 Q649.9,467.0 656.8,473.3 Q669.6,477.6 677.1,475.9 Q684.6,474.5 697.4,473.1 Q704.2,478.3 717.8,474.4 Q724.3,473.1 738.2,472.3 Q751.1,471.0 758.6,470.6" stroke-width="2.0" />
<path d="M739.2,471.9 Q749.4,474.6 759.2,473.8 Q773.8,478.7 779.1,475.4 Q789.2,478.5 799.1,474.5 Q813.0,469.0 817.8,467.3" stroke-width="1.2" />
<path d="M804.4,470.3 Q817.1,472.7 824.8,475.5 Q836.6,477.0 844.1,484.0 Q855.7,492.0 863.7,491.8" stroke-width="0.7" />
<path d="M806.8,474.2 Q812.9,476.1 826.0,485.3 Q838.3,485.0 848.0,488.2" stroke-width="0.7" />
<path d="M815.0,472.1 Q820.6,473.7 832.1,484.0 Q844.7,488.6 848.1,497.4 Q856.8,498.9 866.6,506.9" stroke-width="0.7" />
<path d="M50.0,79.2 Q54.2,84.3 68.0,88.4 Q74.1,96.0 87.2,95.0 Q101.4,97.7 107.3,97.3 Q115.5,99.0 127.4,94.5 Q134.9,95.6 147.4,97.5 Q153.2,98.3 167.4,94.6 Q179.3,90.5 187.7,94.4 Q200.9,98.6 208.0,94.3 Q220.8,97.0 228.2,93.1 Q236.6,95.6 247.3,99.8 Q255.9,105.3 263.5,111.9 Q270.2,119.0 282.9,117.7 Q291.9,116.9 302.0,124.7 Q315.5,122.8 322.2,124.3 Q334.1,129.8 341.6,130.2 Q347.6,135.3 358.6,141.2 Q372.4,141.6 378.4,145.4 Q384.1,148.9 396.9,153.7" stroke-width="8.1" />
<path d="M388.4,150.3 Q394.3,161.7 401.1,167.2 Q411.0,168.3 419.3,177.9 Q430.0,181.5 437.4,188.7 Q439.7,199.0 451.8,204.2 Q459.6,211.5 461.2,223.1 Q466.4,232.1 470.0,242.2 Q479.6,255.0 479.5,261.1 Q482.3,267.6 493.7,276.7 Q498.2,283.4 509.7,290.5" stroke-width="4.9" />
<path d="M502.9,289.5 Q514.5,294.8 519.2,303.3 Q529.8,309.3 532.2,320.1 Q543.2,325.4 546.9,335.5 Q551.4,339.5 564.4,347.7 Q572.9,353.5 583.4,357.4 Q586.4,364.2 599.3,371.6 Q603.1,377.0 616.7,383.9" stroke-width="2.9" />
<path d="M605.2,378.9 Q608.4,385.4 608.5,401.4 Q607.5,411.9 608.6,424.2 Q607.1,435.5 614.3,446.2 Q610.4,462.5 613.7,469.0 Q606.1,479.6 607.8,491.0" stroke-width="1.7" />
<path d="M610.9,462.0 Q609.2,474.1 603.3,481.4 Q596.4,489.4 589.5,496.9 Q585.3,506.8 575.3,512.0 Q568.4,515.3 561.1,527.2" stroke-width="1.0" />
<path d="M608.8,473.4 Q610.8,485.8 609.0,493.9 Q609.1,501.1 610.1,514.4 Q613.8,528.4 615.1,534.4" stroke-width="1.0" />
<path d="M504.6,272.1 Q502.5,284.2 504.0,295.4 Q498.8,311.1 502.4,318.7 Q502.5,331.8 503.2,342.0 Q504.7,352.0 497.7,364.6" stroke-width="2.9" />
<path d="M504.2,336.7 Q488.8,348.0 481.3,352.0 Q465.9,362.6 456.1,363.5" stroke-width="1.7" />
<path d="M474.2,353.6 Q468.4,353.1 454.8,355.6 Q447.9,352.3 436.1,350.3" stroke-width="1.0" />
<path d="M458.3,363.0 Q452.5,364.3 446.0,361.2 Q438.9,358.8 433.6,362.3" stroke-width="1.0" />
<path d="M470.8,354.2 Q459.9,347.1 453.6,343.8 Q450.7,331.9 439.3,329.7" stroke-width="1.0" />
<path d="M383.7,145.3 Q395.3,147.7 401.9,154.6 Q406.1,159.1 416.9,168.5 Q420.4,180.9 425.7,186.9 Q431.7,194.3 436.2,204.4 Q441.0,213.6 445.2,222.8 Q454.8,228.5 455.2,240.6 Q456.8,253.5 465.0,258.5 Q468.4,268.2 479.1,273.2" stroke-width="4.9" />
<path d="M463.4,257.9 Q474.6,257.0 482.5,251.8 Q491.5,252.3 500.9,243.7 Q514.6,240.8 519.0,235.1 Q529.8,234.3 536.1,224.6" stroke-width="2.9" />
<path d="M529.2,225.4 Q532.2,212.4 540.2,204.1 Q548.9,190.9 547.6,181.3" stroke-width="1.7" />
<path d="M546.4,200.8 Q555.3,200.6 557.4,194.1 Q564.5,185.2 566.2,184.7" stroke-width="1.0" />
<path d="M543.8,208.0 Q546.7,200.1 553.9,192.0 Q562.3,185.8 562.2,174.9" stroke-width="1.0" />
<path d="M522.5,230.7 Q539.0,230.2 551.3,227.2 Q569.7,233.3 579.8,232.4" stroke-width="1.7" />
<path d="M563.5,232.4 Q566.7,228.9 578.9,230.5 Q585.8,226.9 592.7,223.5" stroke-width="1.0" />
<path d="M575.3,228.8 Q583.2,230.4 593.8,234.7 Q604.3,239.5 611.7,242.3" stroke-width="1.0" />
<path d="M512.1,233.4 Q516.3,228.4 520.1,217.0 Q525.8,208.2 526.6,200.0" stroke-width="1.7" />
<path d="M524.7,205.3 Q523.0,202.5 530.1,199.0 Q528.1,191.9 535.0,192.3" stroke-width="1.0" />
<path d="M518.8,217.0 Q525.0,216.7 529.7,214.6 Q530.8,218.8 540.8,216.0" stroke-width="1.0" />
<path d="M521.1,209.2 Q529.1,205.6 534.0,205.3 Q544.0,198.6 545.5,198.3" stroke-width="1.0" />
<path d="M370.4,146.4 Q381.3,152.8 390.2,154.5 Q397.1,157.6 410.4,161.3 Q425.1,158.3 431.7,162.0 Q441.0,165.1 451.9,168.6 Q467.1,163.1 473.2,167.1 Q482.0,168.2 493.7,172.9 Q500.3,171.6 513.9,179.6 Q526.3,180.0 534.9,182.9 Q541.8,185.6 556.0,185.7 Q570.2,184.8 577.3,187.0 Q589.6,180.1 597.7,180.6 Q612.0,178.2 618.9,182.4 Q627.6,183.8 640.1,180.6" stroke-width="4.9" />
<path d="M636.5,180.9 Q648.8,171.7 655.1,169.9 Q664.8,160.9 672.5,157.3 Q685.9,155.9 692.6,149.4 Q705.5,148.1 714.1,148.0 Q728.4,149.8 735.6,146.0 Q740.8,140.9 755.7,138.2 Q769.9,141.5 777.2,136.1 Q784.2,135.6 797.3,128.3 Q803.3,129.5 818.7,125.9" stroke-width="2.9" />
<path d="M803.7,127.4 Q813.9,124.2 822.2,118.0 Q827.8,106.6 836.5,103.1 Q841.3,96.2 846.6,84.9 Q845.2,74.5 852.3,65.0" stroke-width="1.7" />
<path d="M848.4,93.2 Q849.2,88.1 843.6,76.4 Q840.7,66.4 844.4,59.0" stroke-width="1.0" />
<path d="M850.1,78.5 Q865.1,77.4 872.1,68.1 Q885.3,65.5 892.9,55.7" stroke-width="1.0" />
<path d="M845.9,89.2 Q856.3,86.4 859.1,73.9 Q865.5,72.0 876.2,63.1" stroke-width="1.0" />
<path d="M50.0,210.9 Q61.4,207.9 69.0,203.1 Q78.5,198.7 89.6,202.6 Q104.4,208.2 109.5,207.5 Q117.3,211.4 130.0,205.8 Q142.3,207.0 150.4,208.3 Q164.3,211.2 170.4,213.2 Q178.9,217.6 190.9,213.2 Q199.7,208.9 211.3,210.1 Q223.4,211.8 231.7,208.4 Q241.6,210.6 251.9,212.7 Q259.5,214.2 272.4,213.8 Q283.1,218.5 292.9,214.9 Q302.4,218.7 311.7,223.2 Q326.1,231.8 330.7,231.0 Q342.7,240.5 347.0,243.5 Q355.9,247.8 359.5,259.9 Q371.3,267.5 375.2,273.1 Q382.1,278.9 393.2,283.1 Q407.4,283.5 411.9,291.7 Q418.2,292.1 430.8,299.7 Q441.0,304.8 445.6,314.0" stroke-width="5.4" />
<path d="M443.3,310.8 Q450.2,309.7 465.3,315.6 Q475.1,324.7 484.9,326.4 Q495.9,328.6 507.0,330.8 Q515.0,337.5 526.5,341.8 Q531.2,350.1 541.2,358.8 Q551.1,369.1 557.9,373.9 Q563.5,382.3 573.2,390.3 Q580.7,401.8 582.7,410.7" stroke-width="3.2" />
<path d="M570.5,409.1 Q576.9,414.9 583.8,428.4 Q591.1,435.2 591.5,450.6 Q601.8,464.4 605.0,469.9 Q609.5,473.6 621.3,486.8 Q631.8,488.8 641.4,499.0" stroke-width="1.9" />
<path d="M638.7,486.1 Q638.5,499.0 636.8,508.5 Q628.3,515.9 627.2,528.7 Q616.7,542.1 613.4,546.4 Q605.2,554.4 603.6,566.5" stroke-width="1.2" />
<path d="M608.3,562.5 Q602.4,570.6 595.5,578.8 Q588.4,588.8 579.5,592.0" stroke-width="0.7" />
<path d="M604.3,560.5 Q605.4,569.3 612.6,584.1 Q616.2,599.4 619.1,608.1" stroke-width="0.7" />
<path d="M577.3,402.9 Q577.3,415.3 581.1,424.7 Q584.0,430.7 583.0,446.7 Q586.2,459.3 592.8,466.5 Q598.6,479.2 604.6,485.2 Q605.9,498.6 617.2,503.3 Q617.5,512.1 625.4,523.8" stroke-width="1.9" />
<path d="M615.0,506.0 Q626.3,515.3 634.0,525.7 Q639.1,536.6 650.2,547.8" stroke-width="1.2" />
<path d="M649.2,540.2 Q656.6,541.7 663.4,545.0 Q674.7,552.2 676.5,552.3" stroke-width="0.7" />
<path d="M644.1,536.4 Q653.2,538.7 655.5,544.8 Q660.0,550.6 669.1,548.6" stroke-width="0.7" />
<path d="M633.8,536.2 Q631.3,550.2 636.9,556.3 Q633.1,566.4 637.5,576.7" stroke-width="0.7" />
<path d="M618.9,496.1 Q632.8,497.7 646.9,504.7 Q659.5,506.7 676.1,507.7" stroke-width="1.2" />
<path d="M658.2,504.7 Q667.4,509.3 677.6,510.7 Q686.3,512.9 697.8,510.0" stroke-width="0.7" />
<path d="M673.1,507.4 Q685.7,507.9 693.5,509.5 Q704.5,507.5 713.9,511.4" stroke-width="0.7" />
<path d="M669.4,506.9 Q678.9,516.4 682.5,521.6 Q688.2,527.4 690.5,539.5" stroke-width="0.7" />
<path d="M437.6,293.7 Q440.8,302.1 445.7,312.2 Q448.8,318.7 456.1,329.5 Q466.9,335.4 468.4,345.6 Q479.5,353.2 483.9,358.6 Q490.8,368.4 501.5,368.4 Q507.3,369.3 520.7,374.8 Q527.6,376.6 540.9,376.0 Q554.5,381.4 560.3,381.3 Q570.2,391.4 577.4,392.1 Q584.0,395.3 592.2,405.9 Q601.2,411.4 610.0,415.4 Q620.3,424.4 626.7,426.8 Q636.9,431.3 642.7,439.2 Q650.8,442.9 659.2,450.9 Q666.1,450.3 677.8,458.7 Q685.0,459.1 697.7,462.3" stroke-width="3.2" />
<path d="M696.8,462.3 Q701.4,453.3 715.7,448.9 Q725.9,442.5 729.5,430.3 Q739.9,418.7 747.0,415.2 Q750.7,408.0 757.8,394.7 Q761.2,381.8 763.8,372.3 Q773.3,364.3 773.1,351.1" stroke-width="1.9" />
<path d="M767.8,362.4 Q763.5,348.2 766.8,341.8 Q773.7,329.8 771.0,321.6 Q770.0,311.1 770.2,301.0 Q769.5,290.1 771.1,280.4" stroke-width="1.2" />
<path d="M770.9,302.5 Q775.3,289.7 770.6,285.4 Q775.0,280.2 771.8,268.3" stroke-width="0.7" />
<path d="M770.8,292.4 Q780.9,287.7 784.7,280.4 Q786.9,273.5 793.8,264.3" stroke-width="0.7" />
<path d="M761.8,359.5 Q770.2,358.4 780.6,348.2 Q792.3,339.7 795.6,332.1 Q797.7,323.5 806.4,313.0 Q814.3,300.6 816.9,293.7" stroke-width="1.2" />
<path d="M812.9,299.0 Q818.3,288.7 824.7,274.4 Q831.9,258.0 839.1,251.2" stroke-width="0.7" />
<path d="M808.1,307.9 Q811.4,294.8 811.1,285.0 Q813.6,272.0 819.7,263.6" stroke-width="0.7" />
<path d="M764.2,368.5 Q766.8,353.9 772.8,347.2 Q773.1,331.7 778.7,325.0 Q778.7,308.9 777.1,302.0 Q774.3,286.9 779.3,279.2" stroke-width="1.2" />
<path d="M778.1,293.6 Q781.0,282.6 778.9,273.9 Q780.4,262.8 775.8,254.3" stroke-width="0.7" />
<path d="M778.6,290.6 Q771.8,282.4 769.2,274.7 Q767.3,269.0 761.7,257.9" stroke-width="0.7" />
<path d="M778.0,280.5 Q778.9,275.0 773.6,260.3 Q768.5,246.9 764.6,241.6 Q762.3,230.9 755.2,223.1" stroke-width="0.7" />
<path d="M672.4,460.9 Q684.8,469.9 689.4,472.5 Q699.4,478.5 705.1,485.8 Q717.5,484.9 724.2,493.8 Q733.7,492.0 744.7,495.2 Q758.3,491.5 764.7,490.3 Q777.6,492.4 784.6,484.9 Q790.9,482.2 804.2,478.6 Q812.7,473.5 823.4,471.2" stroke-width="1.9" />
<path d="M814.6,471.7 Q821.7,461.8 829.0,452.0 Q834.3,446.3 849.2,438.5 Q861.8,434.3 867.5,422.3" stroke-width="1.2" />
<path d="M856.3,436.4 Q866.1,425.2 880.1,421.0 Q887.5,412.0 900.9,401.8" stroke-width="0.7" />
<path d="M851.6,442.2 Q856.7,436.6 868.5,434.0 Q876.4,426.4 882.6,421.5" stroke-width="0.7" />
<path d="M682.7,462.1 Q692.3,453.9 700.9,451.3 Q715.5,446.5 721.6,446.7 Q729.4,442.8 742.2,441.9 Q756.9,434.8 761.9,434.0 Q774.8,428.1 782.5,429.2 Q793.4,430.7 802.6,422.3 Q807.5,414.9 822.4,414.9" stroke-width="1.9" />
<path d="M813.1,418.0 Q818.4,422.6 827.9,432.8 Q834.3,440.0 843.6,446.7 Q853.6,454.8 859.8,460.0 Q869.1,470.5 877.5,471.2 Q880.7,476.6 893.8,484.4" stroke-width="1.2" />
<path d="M880.3,477.9 Q878.3,484.1 884.5,499.1 Q879.7,509.1 880.8,520.3 Q877.4,534.6 877.7,541.6" stroke-width="0.7" />
<path d="M799.6,419.9 Q813.7,410.8 818.2,403.5 Q822.9,393.3 830.3,381.8 Q840.8,370.0 847.0,363.4 Q856.5,359.1 868.9,351.7" stroke-width="1.2" />
<path d="M844.5,360.5 Q856.9,348.9 867.4,344.8 Q879.3,338.9 894.7,339.1" stroke-width="0.7" />
<path d="M867.0,363.4 Q880.2,358.7 890.6,362.6 Q898.8,360.7 914.2,362.9 Q921.1,357.6 937.4,358.6" stroke-width="0.7" />
<path d="M798.0,419.1 Q803.7,421.6 818.3,421.1 Q823.9,421.5 837.6,427.8 Q850.8,429.8 858.0,428.3 Q868.8,433.6 878.3,431.1" stroke-width="1.2" />
<path d="M858.7,431.0 Q863.3,440.7 874.9,445.3 Q882.0,458.7 886.5,463.5" stroke-width="0.7" />
<path d="M862.0,429.1 Q870.5,437.2 882.0,441.5 Q892.9,441.0 904.7,447.6" stroke-width="0.7" />
<path d="M878.0,429.4 Q886.1,439.1 896.9,446.2 Q908.9,453.1 918.1,460.1" stroke-width="0.7" />
<path d="M442.8,297.5 Q445.2,304.8 449.2,317.4 Q455.8,324.1 462.4,333.7 Q464.5,344.4 476.6,349.1 Q484.4,351.9 493.4,361.8 Q505.4,364.2 510.1,374.4 Q519.7,373.8 529.2,383.0 Q536.0,392.3 544.7,397.2 Q552.7,405.0 558.7,412.8 Q566.7,421.5 575.8,425.0 Q586.1,427.9 591.6,438.7 Q597.1,449.2 604.1,455.6 Q606.3,466.3 613.8,474.1 Q615.1,482.2 626.1,491.1 Q631.1,502.0 641.4,505.4 Q649.9,513.5 659.3,516.4" stroke-width="3.2" />
<path d="M649.9,514.7 Q650.4,526.5 658.8,532.6 Q667.0,538.6 670.4,548.9 Q679.9,558.0 687.2,559.8 Q699.0,569.1 701.6,573.8 Q712.8,579.8 719.3,583.1 Q728.7,589.8 732.9,597.7 Q737.8,603.6 743.7,614.6 Q751.6,619.6 756.2,630.3 Q763.4,640.4 773.3,640.7 Q781.5,646.5 792.8,645.0 Q802.1,645.1 810.7,654.1 Q822.1,651.9 830.5,657.1" stroke-width="1.9" />
<path d="M810.0,652.9 Q812.6,663.5 817.3,671.5 Q822.7,683.9 821.7,691.1 Q821.2,703.9 825.0,710.9 Q827.7,717.8 835.3,728.1 Q838.4,742.1 840.0,747.6 Q840.1,757.7 842.1,767.5 Q847.6,773.8 845.2,787.3 Q847.6,793.0 854.9,804.9" stroke-width="1.2" />
<path d="M841.2,794.4 Q849.4,797.2 865.7,798.3 Q873.3,795.6 890.4,798.5 Q897.8,799.8 914.7,803.1 Q922.5,802.2 939.0,807.6" stroke-width="0.7" />
<path d="M846.7,785.8 Q855.9,793.9 857.4,807.2 Q866.1,815.2 867.8,828.8 Q879.7,832.7 884.8,845.7 Q890.2,855.7 899.9,864.4" stroke-width="0.7" />
<path d="M827.9,653.9 Q842.6,656.8 849.6,658.6 Q862.6,659.8 871.7,661.5 Q880.1,665.8 892.2,670.0 Q901.3,673.3 914.4,670.7 Q928.0,672.0 935.5,663.8 Q946.3,664.8 957.8,664.2 Q967.6,661.9 980.0,664.1" stroke-width="1.2" />
<path d="M962.2,664.2 Q966.9,660.5 980.0,653.2 Q994.3,653.7 1000.5,649.0 Q1006.1,645.0 1021.2,646.0" stroke-width="0.7" />
<path d="M50.0,184.8 Q61.3,184.1 67.4,174.6 Q78.0,170.4 87.4,171.4 Q97.7,171.1 105.1,161.6 Q119.3,158.9 125.2,159.2 Q134.0,163.5 145.0,162.9 Q152.6,163.2 163.0,172.1 Q177.6,179.2 182.7,176.8 Q195.6,176.3 201.6,183.9 Q211.3,191.0 219.0,194.3 Q224.7,192.8 237.9,201.3 Q242.3,205.0 254.4,212.9 Q262.8,211.0 274.2,217.2 Q286.0,216.9 294.2,214.3 Q299.8,208.2 313.9,209.8 Q326.2,203.9 330.7,198.5 Q337.9,185.8 343.4,182.8 Q347.2,172.6 354.4,165.9 Q359.3,155.2 365.6,149.0 Q372.5,144.5 380.2,135.0 Q388.1,124.8 390.7,117.8" stroke-width="6.7" />
<path d="M375.1,125.8 Q380.4,118.6 391.8,113.8 Q403.7,113.6 411.1,106.9 Q419.9,108.2 431.6,106.7 Q444.7,102.2 452.0,104.3 Q464.8,103.4 471.8,109.5 Q482.3,113.1 492.2,111.7 Q506.7,109.4 512.4,115.5 Q526.0,120.7 532.4,120.0 Q542.8,120.1 552.5,124.3 Q562.2,128.8 570.5,134.1 Q583.4,139.6 590.8,136.8 Q603.4,138.8 608.9,146.5 Q613.8,151.5 622.8,161.6 Q631.2,168.2 631.6,180.1 Q641.0,183.9 643.7,196.7" stroke-width="4.0" />
<path d="M638.6,195.9 Q650.7,195.6 658.0,205.0 Q669.1,209.3 678.5,211.3 Q686.6,218.9 698.9,217.9 Q710.2,228.2 717.5,228.6 Q731.5,236.2 736.2,239.1 Q746.8,238.9 757.2,243.6 Q764.7,245.2 775.9,254.2 Q786.1,264.3 789.2,271.0" stroke-width="2.4" />
<path d="M771.3,251.7 Q784.8,257.5 790.9,256.4 Q798.9,256.5 809.8,263.1 Q819.7,258.9 829.9,262.1 Q838.3,260.2 849.4,267.1" stroke-width="1.5" />
<path d="M835.3,260.0 Q852.2,257.8 859.4,246.8 Q870.2,236.4 882.7,232.2" stroke-width="0.9" />
<path d="M778.9,262.0 Q793.8,268.4 799.4,265.8 Q807.1,271.5 818.0,275.3 Q823.2,286.6 833.4,289.2 Q843.0,289.2 852.1,298.4 Q864.1,308.7 867.3,312.7 Q875.1,325.8 877.2,331.1" stroke-width="1.5" />
<path d="M872.8,314.8 Q876.6,328.9 875.8,337.6 Q874.4,350.5 873.5,360.4 Q869.9,366.6 863.1,380.8 Q859.0,392.2 854.8,402.2" stroke-width="0.9" />
<path d="M640.3,181.9 Q647.4,185.4 660.1,192.4 Q664.1,203.9 674.5,209.6 Q687.2,220.7 692.8,222.4 Q703.1,227.6 714.6,227.4 Q721.6,229.7 736.9,229.7 Q751.0,234.8 759.3,230.9 Q770.6,232.4 781.5,233.8 Q787.5,229.4 803.1,228.0" stroke-width="2.4" />
<path d="M782.1,233.5 Q790.6,222.7 799.1,220.0 Q805.5,216.8 818.2,209.4 Q824.3,206.3 839.6,205.7 Q847.4,207.4 861.0,209.6 Q870.5,210.0 882.6,212.0 Q896.5,214.0 903.3,218.8" stroke-width="1.5" />
<path d="M892.9,215.2 Q904.0,222.0 909.7,229.3 Q922.2,231.7 929.4,238.8 Q941.9,241.8 951.3,240.4 Q957.8,249.6 971.0,250.0" stroke-width="0.9" />
<path d="M774.2,233.4 Q787.0,235.9 798.5,243.5 Q812.8,252.3 823.6,251.5 Q833.8,257.3 849.8,253.7" stroke-width="1.5" />
<path d="M837.9,253.2 Q843.4,260.0 851.6,263.2 Q863.0,268.1 867.3,269.6" stroke-width="0.9" />
<path d="M792.7,235.4 Q805.8,227.8 814.8,226.8 Q822.1,221.5 837.9,221.4 Q847.3,226.5 861.5,222.7 Q872.7,224.0 883.1,232.6" stroke-width="1.5" />
<path d="M862.8,223.5 Q860.8,237.4 865.7,246.9 Q865.4,261.2 872.3,269.6 Q878.4,286.2 874.6,293.1" stroke-width="0.9" />
<path d="M856.8,222.0 Q869.0,231.6 876.2,237.9 Q879.5,247.7 892.4,256.9" stroke-width="0.9" />
<path d="M50.0,87.6 Q61.3,91.9 70.4,86.4 Q75.8,80.6 90.3,81.5 Q102.4,75.0 109.8,75.7 Q119.6,69.0 126.2,63.3 Q134.6,59.1 144.7,54.7 Q151.5,55.8 163.6,47.0 Q168.3,45.3 180.1,35.0 Q191.7,29.3 197.1,23.6 Q205.4,14.3 215.3,14.2 Q225.8,9.2 235.1,9.2 Q246.3,4.4 254.0,1.5 Q268.2,-0.8 274.2,-2.0 Q287.5,-4.8 294.6,-1.0 Q307.7,-5.4 314.8,-4.0 Q320.8,-8.2 332.8,-13.6 Q347.9,-14.5 353.1,-16.5 Q361.6,-19.9 373.5,-16.3 Q381.2,-11.7 393.8,-14.0 Q405.8,-7.9 413.8,-9.4 Q426.5,-9.5 433.4,-3.7 Q441.4,0.1 452.2,4.3 Q459.5,8.8 471.6,10.8 Q475.2,18.3 487.1,24.1 Q492.2,26.1 502.7,37.2" stroke-width="8.8" />
<path d="M491.6,19.9 Q492.8,31.6 497.9,39.9 Q498.5,55.0 499.3,60.7 Q497.3,71.0 498.4,81.6 Q490.5,87.0 489.9,100.7 Q486.3,107.2 484.9,121.0 Q482.3,132.6 472.9,138.1 Q464.7,147.7 456.1,150.6 Q446.9,158.3 443.6,167.3 Q440.2,171.5 428.2,181.4 Q415.4,190.2 411.2,193.5 Q402.4,203.3 394.7,206.4 Q390.7,209.7 378.3,219.4 Q366.6,224.8 360.0,229.4 Q347.2,234.3 340.8,237.7 Q331.9,242.0 322.7,248.2 Q316.2,256.9 308.9,263.9 Q304.5,271.6 294.1,278.7" stroke-width="5.3" />
<path d="M295.1,276.6 Q286.6,278.8 278.7,290.4 Q266.0,297.6 263.4,305.6 Q259.4,308.6 247.9,320.5 Q242.5,323.0 228.5,329.7 Q222.8,329.7 209.2,339.2 Q200.6,336.9 188.1,343.3 Q173.5,345.5 166.8,340.5 Q159.0,340.0 145.6,337.1 Q132.3,340.3 124.7,341.9 Q109.6,338.3 103.2,342.7 Q93.7,344.2 83.2,350.5 Q71.9,353.9 61.7,352.2 Q54.2,358.7 41.9,360.6" stroke-width="3.2" />
<path d="M50.9,354.0 Q36.0,352.5 29.7,359.4 Q23.5,363.8 8.2,363.7 Q-1.7,364.9 -13.6,361.8 Q-23.2,358.4 -34.4,354.9 Q-39.7,354.0 -54.4,346.1 Q-65.8,347.1 -75.9,342.0 Q-87.4,332.8 -95.6,332.4 Q-101.0,328.5 -111.7,317.6" stroke-width="1.9" />
<path d="M-105.0,329.7 Q-114.2,319.7 -118.6,309.5 Q-125.2,301.3 -135.9,292.5 Q-138.5,277.7 -145.5,270.2" stroke-width="1.1" />
<path d="M-106.5,332.1 Q-111.4,323.6 -115.0,313.0 Q-119.4,306.9 -126.7,295.7 Q-134.3,286.1 -137.2,277.6 Q-139.4,269.5 -147.6,259.4" stroke-width="1.1" />
<path d="M64.7,359.4 Q59.7,365.5 45.2,364.5 Q37.7,362.4 25.3,367.3 Q18.0,371.4 5.4,370.6 Q-1.0,372.3 -14.1,375.7 Q-24.5,386.6 -30.2,387.7 Q-38.6,390.1 -47.7,397.8 Q-62.1,401.9 -67.0,403.2 Q-78.3,400.5 -87.0,405.7" stroke-width="1.9" />
<path d="M-60.9,404.2 Q-64.2,395.4 -77.2,391.8 Q-82.7,393.1 -96.3,384.8 Q-104.0,386.1 -116.1,379.9 Q-124.3,384.1 -136.5,378.9" stroke-width="1.1" />
<path d="M66.5,356.4 Q57.2,350.8 46.5,352.7 Q37.2,355.3 26.2,354.3 Q20.8,353.9 6.4,359.4 Q1.3,363.2 -10.3,371.1 Q-23.8,374.0 -29.6,377.6 Q-38.4,383.7 -49.9,379.8" stroke-width="1.9" />
<path d="M-34.4,377.8 Q-44.7,383.5 -58.2,382.3 Q-70.3,388.6 -79.2,394.4 Q-85.5,398.0 -96.8,411.1" stroke-width="1.1" />
<path d="M310.4,267.2 Q307.1,281.1 302.4,287.2 Q293.8,299.5 293.3,306.7 Q287.5,322.3 291.5,328.1 Q294.3,339.5 291.6,349.7 Q291.1,362.4 284.2,369.9 Q278.3,384.0 277.8,390.5 Q275.5,405.7 272.2,411.3 Q266.8,422.4 265.3,431.7" stroke-width="3.2" />
<path d="M266.4,420.6 Q265.6,429.2 255.1,439.2 Q250.6,450.6 237.7,452.5 Q230.4,457.6 224.0,469.5 Q214.4,478.2 210.7,486.9" stroke-width="1.9" />
<path d="M210.9,470.2 Q211.4,481.7 204.0,491.0 Q203.8,505.7 199.8,512.5" stroke-width="1.1" />
<path d="M265.4,420.6 Q263.6,433.6 260.3,445.8 Q261.8,456.4 254.4,470.9 Q250.9,485.5 249.0,496.1" stroke-width="1.9" />
<path d="M249.4,487.4 Q250.3,493.3 252.5,502.6 Q255.8,512.4 256.9,517.6" stroke-width="1.1" />
<path d="M250.1,473.9 Q252.0,486.1 244.8,499.1 Q234.6,509.4 230.2,520.3" stroke-width="1.1" />
<path d="M251.5,476.2 Q243.3,485.6 233.5,485.3 Q226.5,489.8 217.7,497.7 Q211.8,507.4 200.7,508.3" stroke-width="1.1" />
<path d="M301.3,257.5 Q290.4,258.9 281.1,260.0 Q270.0,263.9 261.3,264.3 Q254.2,270.7 241.3,268.1 Q235.3,273.8 222.5,275.9 Q216.3,277.4 203.0,281.5 Q191.0,278.0 182.7,281.6 Q169.3,283.9 162.5,278.7 Q153.0,275.7 142.2,279.7 Q129.4,282.1 122.0,281.4 Q117.0,282.1 102.6,287.6 Q95.1,293.5 82.9,292.7 Q76.7,300.9 65.8,303.7" stroke-width="3.2" />
<path d="M88.0,293.1 Q79.0,298.7 71.5,307.3 Q63.4,313.4 51.4,315.7 Q36.5,316.8 31.2,323.8 Q17.9,327.8 10.4,330.1 Q0.3,328.4 -10.6,335.9" stroke-width="1.9" />
<path d="M2.5,333.5 Q-7.3,340.7 -17.3,343.0 Q-28.5,354.0 -32.7,358.6 Q-38.2,364.7 -42.9,378.0" stroke-width="1.1" />
<path d="M-9.8,334.5 Q-18.1,339.3 -31.1,337.8 Q-42.2,343.9 -51.2,345.7 Q-57.9,345.7 -72.5,349.0" stroke-width="1.1" />
<path d="M498.7,34.6 Q507.9,39.9 512.9,49.1 Q514.9,61.3 526.7,63.9 Q532.7,72.9 538.4,80.5 Q539.0,95.1 544.4,99.8 Q547.2,106.3 544.3,120.1 Q540.5,131.9 542.3,140.3 Q541.0,150.1 533.2,158.4 Q524.1,165.0 523.2,176.0 Q520.0,188.1 515.4,194.8 Q506.0,203.3 502.7,210.6 Q496.0,224.3 496.1,229.7 Q495.2,238.4 497.4,250.0 Q498.4,259.1 494.0,270.0 Q491.1,280.4 485.1,288.2 Q482.8,301.2 475.6,306.1 Q473.4,316.0 470.4,325.7" stroke-width="5.3" />
<path d="M473.5,318.9 Q459.3,317.4 452.5,325.0 Q438.2,322.7 430.8,323.1 Q424.0,323.0 411.0,314.0 Q401.4,315.1 389.2,313.0 Q376.3,312.1 367.5,310.7 Q353.9,304.4 347.4,302.2 Q339.8,300.8 329.1,290.3" stroke-width="3.2" />
<path d="M347.1,296.8 Q339.7,298.7 324.0,300.5 Q311.1,302.4 300.7,299.0 Q294.0,299.9 278.1,292.8 Q265.2,291.4 258.2,280.7" stroke-width="1.9" />
<path d="M273.9,288.3 Q263.9,283.3 255.7,270.6 Q247.4,261.2 232.8,259.6" stroke-width="1.1" />
<path d="M282.5,290.2 Q270.1,278.3 263.9,270.5 Q249.5,263.2 243.4,252.8" stroke-width="1.1" />
<path d="M264.0,294.5 Q257.6,292.6 243.7,287.6 Q237.1,286.6 222.2,288.8" stroke-width="1.1" />
<path d="M351.5,293.7 Q341.2,280.2 339.3,274.5 Q330.0,263.9 323.0,258.4 Q316.3,250.5 313.4,237.8" stroke-width="1.9" />
<path d="M323.6,260.6 Q314.6,250.2 313.6,237.9 Q309.4,225.9 300.7,216.8" stroke-width="1.1" />
<path d="M317.3,264.8 Q316.3,259.4 306.4,253.9 Q298.4,252.6 292.2,247.9" stroke-width="1.1" />
<path d="M351.5,298.7 Q344.6,299.5 330.1,301.5 Q315.5,303.8 309.8,308.7 Q298.7,304.1 288.2,309.3 Q280.0,305.9 266.7,308.1 Q254.8,306.9 245.7,313.3" stroke-width="1.9" />
<path d="M247.8,313.0 Q232.2,309.4 223.3,304.8 Q213.1,295.9 203.3,288.3" stroke-width="1.1" />
<path d="M267.3,308.5 Q261.8,314.3 250.3,321.9 Q247.6,333.1 238.9,340.3 Q228.6,347.8 224.0,356.0" stroke-width="1.1" />
<path d="M50.0,108.0 Q53.2,101.4 65.1,94.6 Q73.5,84.1 77.1,78.3 Q81.2,69.3 88.7,61.7 Q95.4,52.9 103.8,48.3 Q105.6,40.8 116.2,32.4 Q118.9,26.7 126.3,14.9 Q129.7,10.0 132.3,-4.4 Q132.3,-17.1 135.0,-24.5 Q134.6,-37.1 139.3,-44.2 Q135.8,-51.4 139.1,-64.4 Q143.8,-78.0 144.4,-83.9 Q151.6,-91.7 156.7,-100.0 Q165.0,-103.5 170.5,-114.7 Q179.4,-123.9 188.1,-124.6 Q192.9,-131.6 205.0,-135.7 Q213.0,-144.7 222.9,-145.2 Q228.2,-154.8 236.8,-159.7 Q249.8,-166.1 255.1,-168.3 Q265.5,-176.2 269.9,-182.1 Q279.0,-191.1 278.6,-200.3 Q284.3,-208.4 283.1,-220.0" stroke-width="6.9" />
<path d="M279.4,-206.5 Q284.1,-215.2 292.7,-222.8 Q302.7,-229.6 307.5,-237.8 Q311.7,-248.1 319.1,-255.3 Q327.8,-260.3 335.2,-268.9 Q339.9,-280.0 350.7,-283.1 Q358.9,-294.0 359.7,-302.1 Q365.0,-311.3 362.1,-323.0 Q368.1,-334.2 370.6,-342.3 Q374.0,-351.4 378.5,-361.8 Q385.4,-372.1 391.2,-378.6 Q393.5,-385.2 405.4,-394.1 Q409.7,-404.2 412.5,-413.9 Q410.6,-419.5 411.7,-435.0 Q414.4,-449.5 409.6,-455.9 Q405.2,-461.5 403.0,-475.9" stroke-width="4.2" />
<path d="M408.7,-474.9 Q405.2,-486.4 398.0,-492.9 Q395.0,-508.1 393.7,-513.3 Q391.2,-524.1 385.4,-532.5 Q380.2,-543.9 384.7,-553.5 Q384.5,-559.2 390.4,-573.6 Q390.0,-584.7 398.6,-592.9 Q406.1,-605.3 411.7,-609.2 Q414.1,-622.2 419.3,-628.7" stroke-width="2.5" />
<path d="M411.2,-614.1 Q408.9,-621.0 399.9,-634.1 Q395.7,-642.0 386.6,-652.9 Q384.8,-667.2 376.3,-673.5 Q374.3,-682.7 371.5,-696.0 Q370.8,-711.3 361.6,-716.8" stroke-width="1.5" />
<path d="M373.9,-715.4 Q367.1,-724.4 361.0,-735.6 Q349.9,-747.4 344.3,-752.8" stroke-width="0.9" />
<path d="M364.3,-708.7 Q359.2,-716.6 354.3,-732.4 Q352.2,-746.0 343.4,-755.7 Q339.4,-767.8 330.0,-777.6" stroke-width="0.9" />
<path d="M365.2,-708.9 Q361.0,-716.6 363.6,-733.8 Q362.4,-743.2 354.1,-756.9 Q351.5,-773.3 349.5,-781.5" stroke-width="0.9" />
<path d="M279.9,-192.7 Q287.9,-202.8 293.5,-207.5 Q293.8,-215.9 304.0,-224.7 Q306.1,-229.3 314.5,-241.8 Q323.7,-248.8 325.2,-258.8 Q331.2,-272.8 328.8,-278.6 Q324.8,-286.9 329.8,-298.7 Q335.0,-304.5 332.5,-318.6 Q334.3,-327.4 327.5,-338.1 Q323.5,-350.5 320.1,-356.8 Q317.3,-368.5 318.2,-376.8 Q317.9,-384.5 322.3,-396.5 Q330.4,-407.8 328.7,-415.6" stroke-width="4.2" />
<path d="M325.2,-401.2 Q329.9,-407.4 331.9,-421.9 Q328.3,-429.6 332.2,-443.6 Q330.3,-456.7 334.7,-465.1 Q338.3,-478.6 339.7,-486.3 Q339.9,-492.7 343.3,-507.7" stroke-width="2.5" />
<path d="M341.3,-494.8 Q342.9,-510.8 350.8,-522.7 Q358.0,-537.7 365.1,-548.5" stroke-width="1.5" />
<path d="M359.9,-537.1 Q365.8,-540.9 373.4,-542.7 Q382.5,-546.1 387.0,-548.2" stroke-width="0.9" />
<path d="M360.3,-537.7 Q366.3,-545.4 372.5,-552.6 Q379.4,-557.6 382.8,-569.0" stroke-width="0.9" />
<path d="M1150.0,135.8 Q1142.0,133.9 1129.3,139.7 Q1122.8,138.3 1108.6,135.4 Q1100.2,137.5 1087.6,137.0 Q1078.3,142.4 1066.9,140.9 Q1060.3,137.5 1046.2,136.8 Q1037.4,127.7 1028.6,125.3 Q1018.2,124.6 1008.6,118.5 Q994.9,124.0 987.6,119.7 Q978.8,114.0 967.3,113.8 Q953.7,112.3 947.8,105.9 Q939.0,99.9 927.9,99.0 Q918.6,97.7 909.4,88.8 Q898.3,85.7 889.7,81.2 Q876.7,76.1 871.2,71.2 Q865.2,64.1 852.8,60.9 Q840.9,52.1 837.7,46.2 Q831.7,42.3 824.6,29.7" stroke-width="6.8" />
<path d="M835.6,36.5 Q823.9,36.5 816.6,29.8 Q809.5,30.7 797.0,25.0 Q789.6,21.3 780.6,13.3 Q772.5,5.7 762.2,5.1 Q750.1,-1.0 744.4,-4.3 Q733.7,-12.4 726.3,-13.1 Q719.2,-16.1 710.7,-25.9 Q702.9,-34.3 694.4,-37.8 Q684.0,-40.2 675.0,-43.0 Q669.8,-51.1 658.6,-54.7 Q646.6,-64.4 643.5,-68.0 Q640.3,-71.0 629.7,-82.7 Q619.5,-92.6 614.8,-96.3 Q605.5,-103.9 596.2,-104.1" stroke-width="4.1" />
<path d="M603.8,-99.0 Q591.8,-97.6 584.1,-102.9 Q574.8,-104.8 564.1,-101.7 Q551.5,-96.3 545.0,-95.7 Q536.2,-95.8 525.0,-96.6 Q510.8,-99.8 504.9,-96.5 Q500.6,-104.1 486.4,-104.1 Q475.2,-110.7 467.3,-110.3" stroke-width="2.4" />
<path d="M484.4,-109.8 Q472.3,-113.5 465.8,-122.3 Q462.0,-128.0 452.8,-140.5 Q451.2,-151.7 445.7,-161.8" stroke-width="1.5" />
<path d="M455.1,-139.7 Q456.7,-147.9 461.6,-152.5 Q463.7,-158.3 470.5,-163.7" stroke-width="0.9" />
<path d="M451.6,-153.8 Q443.6,-157.7 441.6,-168.8 Q440.7,-174.6 438.3,-186.5" stroke-width="0.9" />
<path d="M469.7,-103.1 Q458.4,-115.6 454.2,-118.5 Q448.6,-131.6 443.1,-137.4 Q434.1,-143.3 425.7,-150.7 Q418.7,-156.1 405.2,-158.4 Q397.8,-156.9 383.4,-159.8" stroke-width="1.5" />
<path d="M412.6,-158.6 Q401.8,-161.6 391.8,-168.0 Q386.8,-175.6 374.8,-183.4 Q368.0,-193.8 358.5,-199.4" stroke-width="0.9" />
<path d="M399.0,-159.0 Q389.3,-150.6 374.2,-144.7 Q358.0,-145.3 346.0,-140.4" stroke-width="0.9" />
<path d="M488.7,-107.7 Q476.4,-110.6 467.3,-122.9 Q457.5,-132.7 447.0,-139.6 Q438.7,-145.2 428.7,-158.3" stroke-width="1.5" />
<path d="M440.6,-143.3 Q442.5,-151.6 441.1,-165.2 Q443.4,-176.3 445.2,-186.8" stroke-width="0.9" />
<path d="M435.2,-148.0 Q435.0,-162.3 429.5,-171.7 Q420.7,-180.0 415.0,-191.5" stroke-width="0.9" />
<path d="M619.7,-97.6 Q613.5,-104.0 599.0,-103.0 Q593.7,-108.9 579.0,-110.6 Q567.2,-117.6 562.3,-123.9 Q556.3,-133.8 547.0,-138.8 Q533.4,-147.5 527.5,-147.7 Q522.7,-152.1 512.5,-162.9 Q507.6,-173.2 503.8,-182.4" stroke-width="2.4" />
<path d="M512.7,-180.8 Q506.5,-188.7 510.1,-206.4 Q513.2,-223.6 512.2,-232.1 Q510.0,-249.7 507.3,-257.5" stroke-width="1.5" />
<path d="M512.7,-253.4 Q512.8,-264.7 504.6,-273.7 Q497.5,-286.2 491.8,-291.4" stroke-width="0.9" />
<path d="M508.3,-234.4 Q512.0,-243.2 519.4,-261.1 Q522.5,-279.0 521.8,-290.0" stroke-width="0.9" />
<path d="M510.9,-250.7 Q510.1,-269.5 508.0,-279.7 Q516.5,-294.7 515.5,-307.9" stroke-width="0.9" />
<path d="M512.8,-163.6 Q504.0,-170.8 496.2,-177.8 Q491.4,-184.5 484.4,-196.2 Q479.4,-208.2 471.0,-213.3 Q461.4,-219.5 452.2,-224.5 Q443.8,-227.4 433.1,-235.1" stroke-width="1.5" />
<path d="M436.7,-223.7 Q418.8,-218.8 410.8,-222.7 Q400.5,-218.5 385.0,-221.0 Q371.1,-221.2 359.8,-227.3" stroke-width="0.9" />
<path d="M445.4,-222.2 Q439.2,-223.0 424.5,-218.7 Q414.9,-221.5 403.7,-223.1 Q388.5,-223.4 382.5,-221.3 Q375.0,-225.5 361.3,-222.9" stroke-width="0.9" />
<path d="M608.8,-93.6 Q600.2,-95.9 586.0,-93.3 Q576.8,-91.6 563.7,-89.5 Q556.8,-88.8 541.1,-87.0 Q534.4,-80.8 519.2,-81.0 Q507.2,-80.9 497.4,-74.4" stroke-width="2.4" />
<path d="M522.3,-82.6 Q507.7,-67.6 502.4,-60.7 Q488.7,-55.1 480.2,-41.2" stroke-width="1.5" />
<path d="M491.5,-47.8 Q478.9,-44.2 475.3,-41.1 Q468.0,-41.7 458.1,-38.2" stroke-width="0.9" />
<path d="M498.2,-48.8 Q486.8,-39.9 481.9,-40.5 Q476.6,-32.6 466.4,-30.7" stroke-width="0.9" />
<path d="M509.6,-75.5 Q504.7,-80.2 494.0,-88.4 Q485.4,-98.3 483.9,-106.0 Q484.2,-118.9 480.0,-125.9" stroke-width="1.5" />
<path d="M483.1,-108.8 Q488.9,-116.0 485.2,-125.3 Q479.4,-136.0 480.8,-141.3" stroke-width="0.9" />
<path d="M524.7,-78.8 Q518.9,-74.1 508.4,-63.5 Q498.0,-58.2 488.4,-53.8 Q480.4,-52.5 466.6,-49.2 Q460.9,-47.9 447.8,-37.3" stroke-width="1.5" />
<path d="M450.3,-40.0 Q448.5,-28.6 438.2,-15.7 Q430.4,1.6 431.7,10.7" stroke-width="0.9" />
<path d="M467.5,-46.1 Q457.5,-51.2 445.4,-56.0 Q433.8,-68.8 428.3,-73.3" stroke-width="0.9" />
<path d="M841.7,36.5 Q847.8,32.1 851.0,18.3 Q849.7,8.2 852.7,-2.0 Q854.7,-15.5 851.4,-22.4 Q844.4,-27.7 845.5,-41.9 Q838.5,-47.8 836.7,-60.3 Q826.3,-63.9 823.9,-76.2 Q810.5,-81.2 807.2,-87.9 Q799.6,-95.4 794.7,-104.0 Q788.8,-109.9 783.3,-121.0 Q776.5,-127.2 766.9,-133.1 Q755.1,-134.8 751.4,-146.4 Q744.9,-152.3 733.1,-155.3 Q728.5,-158.4 717.0,-167.9 Q710.3,-176.8 699.2,-177.8" stroke-width="4.1" />
<path d="M709.1,-164.7 Q707.8,-176.0 704.4,-185.2 Q706.4,-194.5 699.7,-205.7 Q692.6,-217.4 689.5,-224.2 Q689.2,-235.6 684.0,-244.5 Q682.1,-253.0 679.9,-265.1 Q677.3,-279.8 674.1,-285.3 Q670.1,-291.7 672.7,-306.3 Q668.4,-311.0 664.5,-325.7" stroke-width="2.4" />
<path d="M674.0,-312.1 Q668.7,-320.4 654.7,-325.7 Q644.6,-331.4 633.8,-336.5 Q626.8,-342.9 611.0,-342.3" stroke-width="1.5" />
<path d="M622.9,-341.1 Q615.4,-339.5 598.9,-343.6 Q583.0,-345.8 574.7,-343.9" stroke-width="0.9" />
<path d="M623.0,-339.9 Q615.8,-355.9 613.4,-362.5 Q615.5,-378.6 609.3,-386.6" stroke-width="0.9" />
<path d="M616.3,-336.7 Q608.1,-344.6 591.9,-344.5 Q577.7,-355.2 571.0,-359.2" stroke-width="0.9" />
<path d="M664.8,-313.1 Q653.8,-321.5 645.9,-325.3 Q643.9,-338.6 633.2,-343.9 Q629.9,-350.3 626.3,-365.4 Q630.4,-379.8 626.0,-387.9" stroke-width="1.5" />
<path d="M626.1,-376.0 Q621.3,-379.8 611.3,-387.6 Q607.1,-397.6 596.1,-398.7" stroke-width="0.9" />
<path d="M626.1,-380.0 Q614.4,-387.6 608.5,-401.8 Q602.3,-418.1 599.0,-428.2" stroke-width="0.9" />
<path d="M626.0,-383.2 Q634.1,-389.2 635.3,-400.8 Q636.7,-413.1 647.6,-416.4" stroke-width="0.9" />
<path d="M670.4,-303.7 Q661.3,-309.8 656.8,-319.8 Q647.9,-330.6 645.7,-337.8 Q642.0,-341.4 631.1,-353.1 Q624.3,-364.0 622.3,-372.3" stroke-width="1.5" />
<path d="M634.2,-355.2 Q630.5,-362.3 618.1,-368.6 Q606.2,-377.4 600.8,-380.4" stroke-width="0.9" />
<path d="M1150.0,102.1 Q1135.8,103.9 1129.5,96.9 Q1125.2,96.2 1111.2,86.5 Q1105.5,84.3 1091.8,78.3 Q1085.1,68.6 1074.0,67.0 Q1059.4,65.2 1053.9,60.6 Q1043.9,61.2 1033.2,56.4 Q1018.8,60.7 1012.1,56.9 Q1001.3,58.2 991.2,59.4 Q982.7,62.5 972.6,69.5 Q961.8,75.6 954.3,79.9 Q945.1,84.0 936.3,90.9 Q926.6,98.9 922.1,106.5 Q915.8,118.7 908.1,122.3 Q903.7,129.0 899.8,141.7 Q898.1,148.7 892.3,161.4 Q888.9,170.4 881.6,179.6 Q875.3,186.5 870.1,197.3" stroke-width="8.5" />
<path d="M871.3,193.6 Q862.4,199.4 851.8,199.2 Q842.8,209.8 835.9,211.7 Q831.6,221.8 825.4,229.0 Q825.1,234.9 819.0,248.2 Q815.4,256.1 806.9,264.4 Q800.2,273.2 800.0,283.4 Q791.1,293.6 789.9,300.9 Q780.3,312.1 776.0,315.7 Q764.3,322.6 757.8,324.6 Q747.7,326.0 737.7,326.9 Q730.3,333.2 719.7,336.2 Q712.4,345.9 702.6,347.0 Q697.6,352.0 682.9,351.6" stroke-width="5.1" />
<path d="M688.1,351.4 Q676.1,356.5 666.1,356.3 Q657.8,353.4 643.7,354.0 Q628.6,354.2 621.3,356.3 Q613.9,356.8 599.0,352.8 Q585.1,356.1 576.5,352.5 Q563.2,352.9 554.0,351.6 Q540.8,356.2 532.1,357.0" stroke-width="3.1" />
<path d="M539.2,353.2 Q531.3,344.6 521.5,341.5 Q516.0,335.3 503.9,329.4 Q495.9,325.9 483.7,322.6" stroke-width="1.8" />
<path d="M509.6,329.2 Q497.9,323.4 494.1,313.6 Q487.1,301.0 481.6,295.5" stroke-width="1.1" />
<path d="M557.8,354.6 Q544.6,357.3 537.6,359.6 Q529.4,363.8 518.3,367.6 Q508.8,366.4 498.5,374.1 Q488.4,381.9 480.8,385.1 Q472.2,389.3 460.2,388.4" stroke-width="1.8" />
<path d="M476.6,388.2 Q468.6,394.0 457.2,398.4 Q450.6,403.0 435.3,400.5 Q423.4,398.1 413.4,402.5" stroke-width="1.1" />
<path d="M558.1,356.5 Q545.7,361.6 539.7,367.4 Q527.9,375.0 521.0,377.9 Q510.0,383.1 503.9,390.8 Q499.3,401.4 487.6,404.7 Q481.7,414.5 471.1,418.3" stroke-width="1.8" />
<path d="M473.6,404.8 Q460.5,398.7 452.9,397.4 Q445.1,398.4 431.7,391.5 Q417.9,392.7 410.2,386.8" stroke-width="1.1" />
<path d="M479.1,403.2 Q478.6,413.6 478.2,428.2 Q475.7,437.0 469.5,451.6 Q465.4,462.7 458.4,474.0" stroke-width="1.1" />
<path d="M493.7,412.3 Q487.0,422.5 476.2,423.0 Q462.9,425.8 458.2,432.9 Q444.8,435.7 438.4,438.4" stroke-width="1.1" />
<path d="M876.4,179.1 Q867.7,182.4 858.0,188.9 Q849.8,192.3 843.4,203.7 Q839.4,208.6 831.4,220.8 Q828.1,225.4 822.8,239.8 Q813.3,249.8 810.3,256.5 Q802.6,259.0 792.3,267.1 Q781.6,265.6 771.7,270.3 Q763.7,275.6 751.1,273.6 Q737.8,273.6 731.3,280.0 Q718.5,286.9 715.3,293.4 Q709.9,299.2 695.4,299.7 Q684.7,306.2 676.8,309.0 Q664.1,315.5 658.8,319.6" stroke-width="5.1" />
<path d="M673.4,316.7 Q663.3,324.8 656.8,328.4 Q647.9,332.2 643.7,343.9 Q641.7,351.6 631.0,359.7 Q618.2,361.6 613.8,370.7 Q605.3,378.4 601.4,386.7 Q595.0,400.5 592.6,405.1 Q583.1,410.3 579.6,420.7 Q569.0,429.8 563.3,432.8" stroke-width="3.1" />
<path d="M572.1,417.2 Q565.1,421.6 554.4,431.5 Q545.9,442.4 542.4,450.8 Q531.5,460.5 525.4,465.9 Q516.2,467.6 506.5,478.6 Q491.8,487.8 485.9,488.3" stroke-width="1.8" />
<path d="M506.0,480.4 Q497.0,485.9 490.7,500.4 Q480.1,504.3 472.5,517.7 Q465.7,525.5 457.8,538.0" stroke-width="1.1" />
<path d="M495.0,488.2 Q480.9,492.1 474.5,501.0 Q464.1,504.9 454.4,514.4 Q443.7,527.0 440.7,534.4" stroke-width="1.1" />
<path d="M510.4,477.9 Q504.6,481.1 491.3,489.7 Q478.5,490.7 469.4,494.2 Q460.1,495.6 447.5,499.1" stroke-width="1.1" />
<path d="M581.1,423.3 Q566.6,421.7 559.7,412.8 Q550.6,409.9 539.2,400.6 Q533.6,397.1 518.8,388.2 Q507.3,385.1 497.2,378.2 Q490.2,373.5 474.5,370.7" stroke-width="1.8" />
<path d="M489.2,379.5 Q475.2,386.3 468.7,386.6 Q456.1,387.6 447.0,386.0 Q440.6,385.7 426.1,379.9 Q422.2,375.4 408.5,367.2" stroke-width="1.1" />
<path d="M477.2,376.1 Q469.6,365.7 454.1,364.5 Q444.6,358.7 432.0,350.9" stroke-width="1.1" />
<path d="M498.4,377.2 Q482.8,376.7 469.3,372.8 Q455.7,374.2 439.9,373.9" stroke-width="1.1" />
<path d="M681.6,313.4 Q667.7,319.9 663.4,326.6 Q650.7,333.3 644.3,338.5 Q638.4,337.9 623.1,346.2 Q615.3,345.7 601.4,352.0 Q591.4,360.9 581.2,361.9" stroke-width="3.1" />
<path d="M595.9,357.5 Q588.7,364.8 578.2,376.6 Q568.4,389.8 560.1,395.3" stroke-width="1.8" />
<path d="M579.4,381.8 Q580.3,392.1 583.3,398.5 Q580.5,407.4 587.7,415.1" stroke-width="1.1" />
<path d="M580.4,384.9 Q570.5,387.0 564.4,397.5 Q557.1,403.2 548.1,409.9" stroke-width="1.1" />
<path d="M606.2,349.7 Q599.0,361.7 590.1,370.2 Q580.4,379.6 578.7,393.5 Q578.2,405.0 569.8,417.9" stroke-width="1.8" />
<path d="M570.9,392.3 Q565.7,407.8 569.2,414.4 Q577.3,428.9 575.6,435.6" stroke-width="1.1" />
<path d="M571.7,402.9 Q568.1,409.4 561.0,416.5 Q555.7,424.5 547.8,427.8" stroke-width="1.1" />
<path d="M595.0,358.8 Q591.1,364.6 590.9,380.3 Q586.4,387.2 583.2,400.8 Q577.4,413.3 574.7,421.1" stroke-width="1.8" />
<path d="M577.0,420.2 Q582.0,429.3 577.6,441.1 Q577.5,451.2 582.4,461.6" stroke-width="1.1" />
<path d="M583.5,418.3 Q584.5,429.4 593.4,442.2 Q600.2,453.7 600.9,467.0" stroke-width="1.1" />
<path d="M876.6,191.9 Q869.1,194.7 859.9,205.7 Q845.8,213.3 841.5,216.9 Q826.1,222.5 820.6,222.3 Q808.7,223.9 799.9,228.6 Q785.9,225.6 778.4,227.0 Q765.1,222.1 757.0,223.5 Q749.2,222.7 735.7,220.0" stroke-width="5.1" />
<path d="M753.9,224.6 Q741.8,217.5 734.6,211.7 Q727.8,208.1 713.2,202.7 Q700.5,200.5 691.3,194.9" stroke-width="3.1" />
<path d="M703.8,196.3 Q688.2,197.9 681.2,193.8 Q674.6,194.5 659.2,187.9" stroke-width="1.8" />
<path d="M672.2,194.7 Q665.9,188.7 659.0,189.8 Q651.0,188.3 646.7,183.0" stroke-width="1.1" />
<path d="M1150.0,169.9 Q1143.2,166.2 1129.4,170.8 Q1116.6,167.0 1108.8,171.3 Q1097.7,169.1 1089.4,164.6 Q1075.6,164.5 1071.2,154.9 Q1059.9,148.2 1051.3,149.5 Q1038.7,146.7 1031.7,143.3 Q1023.2,141.7 1011.1,142.5 Q1001.4,138.8 992.5,133.8 Q988.0,132.4 975.6,121.9 Q966.7,116.0 956.6,113.9 Q941.6,109.0 936.2,111.1 Q923.4,113.0 915.7,112.1 Q904.7,114.0 895.5,107.9 Q883.1,108.0 875.0,109.7 Q868.4,111.0 855.0,104.8 Q844.7,107.4 834.4,102.9 Q823.4,94.2 816.2,93.4 Q806.8,91.1 800.7,79.8 Q797.1,67.9 789.7,62.4" stroke-width="5.1" />
<path d="M800.7,83.2 Q792.8,75.7 784.5,70.5 Q779.3,61.9 769.5,56.4 Q761.5,49.6 758.9,38.7 Q756.1,34.8 744.5,23.9 Q742.0,14.1 731.2,8.2 Q728.7,-1.0 723.1,-10.7 Q711.8,-19.6 709.6,-26.3 Q705.4,-33.3 701.5,-45.2 Q695.0,-52.1 691.8,-63.4 Q683.4,-70.5 679.8,-80.1 Q671.2,-92.6 666.4,-95.7 Q660.1,-108.3 654.0,-112.2 Q646.2,-117.2 637.9,-125.1 Q628.6,-130.9 622.8,-139.1 Q622.4,-148.6 614.0,-157.7" stroke-width="3.0" />
<path d="M619.8,-140.1 Q606.5,-140.7 599.6,-144.9 Q593.0,-145.3 578.9,-143.9 Q570.2,-145.3 558.2,-143.5 Q545.6,-147.8 537.5,-142.2 Q530.9,-143.7 516.8,-142.8 Q503.9,-143.2 496.9,-148.5 Q487.2,-149.0 479.0,-158.9 Q473.7,-168.3 460.3,-167.8 Q454.8,-176.6 446.5,-183.3 Q446.5,-190.1 436.6,-201.5 Q426.2,-205.9 421.8,-216.0" stroke-width="1.8" />
<path d="M439.0,-199.3 Q431.6,-211.0 425.6,-215.9 Q414.0,-222.3 408.5,-228.7 Q399.1,-233.4 394.7,-245.1 Q383.8,-254.9 376.3,-255.9 Q370.6,-261.8 355.8,-262.0 Q347.2,-269.1 335.1,-267.3 Q324.9,-272.2 315.1,-274.7 Q300.4,-272.8 293.7,-275.6" stroke-width="1.1" />
<path d="M310.5,-274.4 Q302.2,-276.6 288.6,-278.0 Q278.5,-280.9 266.7,-282.0 Q256.4,-292.2 247.6,-293.5 Q240.2,-296.0 226.9,-301.6" stroke-width="0.7" />
<path d="M315.9,-275.1 Q306.0,-263.4 297.3,-257.3 Q288.6,-242.4 284.2,-235.1 Q277.8,-219.7 277.1,-210.4" stroke-width="0.7" />
<path d="M303.9,-275.5 Q288.6,-278.2 281.9,-282.2 Q269.3,-285.0 259.1,-285.4 Q245.2,-286.4 237.9,-294.5 Q233.7,-298.4 221.9,-311.1" stroke-width="0.7" />
<path d="M437.7,-208.3 Q427.7,-215.7 419.8,-220.9 Q410.0,-231.0 405.3,-237.2 Q400.9,-243.8 397.9,-257.8 Q399.1,-264.3 392.0,-278.9 Q387.8,-291.5 385.1,-299.7 Q378.7,-309.9 378.0,-320.4 Q381.2,-328.5 379.1,-342.3 Q383.4,-348.2 386.4,-362.9" stroke-width="1.1" />
<path d="M380.1,-345.2 Q383.8,-355.8 397.3,-359.2 Q410.9,-359.5 418.4,-366.0 Q432.4,-374.9 438.4,-375.7 Q444.2,-376.4 460.0,-380.7 Q474.0,-380.4 482.0,-383.9" stroke-width="0.7" />
<path d="M429.7,-202.5 Q419.5,-209.0 412.8,-214.7 Q402.5,-217.5 398.0,-229.4 Q392.1,-240.5 385.2,-245.7 Q375.8,-252.6 369.5,-259.4 Q363.4,-268.0 359.8,-277.8 Q351.2,-285.2 344.2,-291.6 Q337.9,-296.0 324.6,-298.8" stroke-width="1.1" />
<path d="M331.2,-296.3 Q325.6,-303.0 313.9,-310.7 Q309.8,-320.6 296.4,-324.9 Q290.4,-325.1 275.3,-332.7 Q269.4,-337.1 256.2,-344.7" stroke-width="0.7" />
<path d="M619.0,-142.4 Q610.4,-151.9 600.1,-154.5 Q588.5,-156.7 580.0,-164.5 Q567.4,-168.3 561.0,-176.4 Q550.7,-186.4 540.9,-186.4 Q529.3,-188.3 518.7,-189.9 Q505.9,-188.9 496.7,-185.9" stroke-width="1.8" />
<path d="M522.2,-186.7 Q511.8,-189.7 495.4,-191.6 Q486.3,-188.2 468.2,-192.0" stroke-width="1.1" />
<path d="M489.5,-191.9 Q484.9,-185.1 481.0,-177.7 Q479.0,-170.5 471.8,-164.0" stroke-width="0.7" />
<path d="M479.6,-191.7 Q473.7,-197.6 470.2,-203.4 Q465.9,-214.9 465.9,-217.7" stroke-width="0.7" />
<path d="M484.1,-191.8 Q472.1,-195.4 467.5,-202.0 Q456.4,-206.1 454.7,-216.7" stroke-width="0.7" />
<path d="M614.4,-139.2 Q618.4,-145.4 625.6,-156.6 Q624.8,-169.0 633.4,-175.9 Q637.8,-179.3 646.0,-192.3 Q654.5,-198.8 655.8,-210.7 Q655.2,-221.9 664.3,-229.6 Q671.5,-239.2 673.1,-248.3 Q676.7,-260.9 678.1,-268.5" stroke-width="1.8" />
<path d="M676.9,-242.5 Q685.6,-252.4 694.3,-259.0 Q698.3,-266.3 711.5,-275.7 Q722.0,-283.7 731.9,-288.3 Q743.2,-295.6 750.8,-303.0" stroke-width="1.1" />
<path d="M728.8,-302.0 Q736.3,-311.9 740.7,-320.9 Q750.4,-326.8 757.7,-335.3 Q766.7,-348.9 769.4,-354.3" stroke-width="0.7" />
<path d="M745.7,-285.0 Q757.1,-297.5 762.2,-305.2 Q766.4,-314.2 771.5,-329.6" stroke-width="0.7" />
<path d="M750.6,-291.5 Q757.9,-282.3 770.7,-282.4 Q783.2,-281.4 792.2,-277.1 Q799.6,-273.4 814.2,-278.5" stroke-width="0.7" />
<path d="M676.0,-261.1 Q687.4,-268.0 691.3,-277.9 Q693.4,-287.4 699.4,-299.2 Q703.9,-315.4 700.2,-321.9 Q700.8,-329.7 709.2,-342.8 Q718.6,-355.9 722.3,-361.4" stroke-width="1.1" />
<path d="M709.0,-359.0 Q723.0,-366.2 728.3,-364.7 Q739.7,-362.0 748.4,-364.0 Q760.4,-363.8 768.2,-367.9 Q776.3,-375.3 786.5,-376.4" stroke-width="0.7" />
<path d="M792.8,77.9 Q791.3,63.3 785.4,57.7 Q782.6,47.6 772.4,40.5 Q773.0,31.3 764.3,20.5 Q764.6,10.6 755.5,0.8 Q754.8,-9.9 746.7,-18.9 Q736.2,-28.0 734.8,-36.8 Q732.8,-41.7 721.5,-53.8 Q713.8,-59.6 707.3,-70.0 Q698.0,-78.4 690.7,-83.9" stroke-width="3.0" />
<path d="M701.9,-70.5 Q696.8,-80.2 691.9,-88.4 Q683.5,-96.2 678.5,-103.9 Q668.1,-116.0 665.9,-120.1 Q658.5,-131.0 652.7,-135.8" stroke-width="1.8" />
<path d="M666.6,-127.2 Q654.6,-125.0 648.1,-128.4 Q634.9,-133.5 629.7,-129.0" stroke-width="1.1" />
<path d="M631.2,-128.8 Q622.1,-133.3 620.9,-128.6 Q611.7,-133.0 610.6,-129.4" stroke-width="0.7" />
<path d="M669.4,-130.9 Q673.1,-144.4 680.6,-158.0 Q681.6,-169.1 688.4,-186.4" stroke-width="1.1" />
<path d="M682.2,-168.8 Q684.7,-182.0 695.5,-186.1 Q703.9,-197.5 711.0,-201.7" stroke-width="0.7" />
<path d="M684.4,-181.5 Q679.5,-187.7 682.8,-201.8 Q684.3,-213.0 689.1,-221.1" stroke-width="0.7" />
<path d="M682.9,-185.9 Q685.9,-184.5 694.4,-191.4 Q703.3,-193.8 703.3,-200.7" stroke-width="0.7" />
<path d="M712.1,-77.1 Q708.5,-81.8 699.7,-96.3 Q693.3,-110.9 692.2,-117.9 Q688.1,-126.3 691.9,-140.7 Q698.8,-152.5 699.9,-162.1" stroke-width="1.8" />
<path d="M696.6,-155.2 Q699.5,-168.3 704.7,-173.9 Q707.2,-178.6 718.3,-189.1" stroke-width="1.1" />
<path d="M715.0,-187.5 Q720.4,-191.7 721.2,-201.0 Q724.3,-209.4 724.5,-215.4" stroke-width="0.7" />
<path d="M699.2,-148.5 Q696.5,-156.6 700.7,-174.3 Q708.8,-185.8 710.9,-198.0" stroke-width="1.1" />
<path d="M706.6,-189.8 Q705.4,-201.3 706.3,-204.9 Q709.5,-207.9 705.7,-219.9" stroke-width="0.7" />
<path d="M700.7,-197.6 Q702.3,-203.5 705.1,-209.8 Q709.9,-214.8 712.7,-220.3" stroke-width="0.7" />
<path d="M689.9,-137.8 Q690.3,-149.8 693.5,-161.0 Q701.7,-172.3 700.5,-183.3 Q708.2,-192.2 707.6,-205.7" stroke-width="1.1" />
<path d="M701.5,-186.1 Q706.6,-189.5 716.2,-198.1 Q722.1,-205.6 725.1,-214.9" stroke-width="0.7" />
<path d="M695.7,-65.6 Q689.0,-62.7 673.9,-69.6 Q665.7,-75.3 654.7,-80.6 Q640.7,-84.8 633.2,-85.7 Q620.9,-89.0 611.0,-86.8 Q597.7,-81.2 589.3,-82.3" stroke-width="1.8" />
<path d="M610.8,-86.2 Q600.1,-77.0 593.5,-73.2 Q583.6,-70.2 576.4,-59.9 Q571.3,-57.4 556.8,-50.8 Q546.6,-48.4 537.6,-40.7" stroke-width="1.1" />
<path d="M546.9,-43.1 Q538.1,-32.6 530.8,-29.6 Q525.3,-17.9 521.1,-11.1 Q518.6,-4.7 511.5,7.5" stroke-width="0.7" />
<path d="M553.7,-46.6 Q546.4,-49.0 531.4,-43.3 Q520.0,-38.3 508.9,-43.1 Q495.0,-44.6 486.3,-42.8" stroke-width="0.7" />
<path d="M1150.0,74.9 Q1136.9,70.5 1129.1,71.7 Q1118.3,67.9 1108.1,73.9 Q1100.5,78.2 1087.0,75.2 Q1077.1,73.5 1066.2,71.8 Q1052.7,61.5 1048.3,60.4 Q1037.4,57.2 1028.3,53.7 Q1016.6,50.8 1008.1,47.4 Q993.7,47.9 987.1,45.7 Q973.3,41.0 966.9,39.7 Q954.7,30.3 949.0,28.4 Q939.0,16.3 936.0,11.8 Q924.1,8.1 918.8,-0.5 Q912.7,-9.2 900.3,-10.7 Q894.6,-14.7 879.9,-16.2 Q874.9,-18.5 861.9,-27.3 Q855.6,-38.0 845.4,-40.5 Q836.9,-47.5 828.9,-53.6" stroke-width="7.0" />
<path d="M829.8,-40.1 Q821.1,-44.0 815.5,-56.1 Q809.9,-65.9 807.2,-75.9 Q794.8,-87.1 792.0,-91.0 Q790.9,-97.8 783.6,-110.7 Q777.9,-122.6 771.1,-128.2 Q764.8,-131.3 753.3,-140.1 Q743.5,-147.2 740.9,-157.6 Q735.9,-159.1 723.0,-169.5 Q712.6,-166.7 702.0,-173.7 Q691.8,-171.4 680.6,-171.5" stroke-width="4.2" />
<path d="M705.1,-171.8 Q690.0,-176.7 682.6,-173.8 Q669.6,-175.0 660.1,-176.3 Q645.3,-171.3 637.9,-171.8 Q629.2,-167.3 615.6,-168.1 Q602.2,-160.4 594.4,-160.2" stroke-width="2.5" />
<path d="M603.7,-163.6 Q608.8,-151.0 604.1,-142.2 Q602.6,-129.3 600.7,-121.0 Q599.6,-110.4 594.4,-100.5" stroke-width="1.5" />
<path d="M595.4,-122.5 Q600.2,-116.7 604.8,-105.1 Q609.4,-97.5 611.1,-86.3" stroke-width="0.9" />
<path d="M600.4,-116.9 Q604.6,-108.7 607.2,-96.5 Q608.8,-85.4 612.8,-75.7" stroke-width="0.9" />
<path d="M613.0,-167.9 Q603.5,-168.5 591.7,-175.8 Q580.3,-180.5 570.4,-183.7 Q562.4,-185.0 547.7,-184.0" stroke-width="1.5" />
<path d="M564.0,-183.9 Q557.1,-174.8 549.6,-172.9 Q542.7,-169.1 532.4,-167.5" stroke-width="0.9" />
<path d="M569.7,-183.9 Q558.1,-182.8 546.7,-188.2 Q537.6,-196.8 527.0,-201.2" stroke-width="0.9" />
<path d="M695.7,-172.2 Q689.3,-178.3 674.6,-178.0 Q666.4,-174.6 653.0,-180.4 Q644.4,-180.2 631.7,-185.1 Q616.8,-192.1 610.3,-189.4 Q602.9,-188.5 588.5,-188.0 Q574.1,-189.7 567.0,-191.6 Q553.9,-186.6 545.6,-187.1" stroke-width="2.5" />
<path d="M566.4,-192.9 Q556.0,-194.9 548.1,-202.2 Q538.5,-208.0 528.8,-209.4 Q516.2,-216.1 512.6,-222.1 Q508.3,-224.3 494.1,-231.1" stroke-width="1.5" />
<path d="M517.0,-228.7 Q502.8,-238.2 490.2,-240.1 Q471.8,-238.9 461.5,-245.3" stroke-width="0.9" />
<path d="M499.4,-227.9 Q487.7,-233.5 483.2,-231.3 Q474.8,-230.5 467.0,-235.3" stroke-width="0.9" />
<path d="M514.5,-219.3 Q505.3,-231.8 492.2,-238.6 Q479.7,-241.6 466.0,-252.0" stroke-width="0.9" />
<path d="M548.1,-188.1 Q535.9,-179.7 524.7,-181.0 Q509.5,-174.1 501.8,-172.7 Q492.4,-164.9 481.5,-159.2 Q471.3,-152.8 460.4,-147.1" stroke-width="1.5" />
<path d="M473.8,-148.1 Q466.9,-142.0 464.6,-129.2 Q455.4,-126.9 448.8,-115.2" stroke-width="0.9" />
<path d="M476.1,-156.4 Q464.5,-153.2 456.3,-144.1 Q449.7,-141.0 436.2,-132.3 Q421.1,-134.2 413.5,-127.1" stroke-width="0.9" />
<path d="M699.2,-172.2 Q695.7,-180.1 684.9,-188.4 Q674.0,-193.0 666.2,-199.2 Q657.0,-208.1 648.0,-210.8 Q642.0,-215.4 627.0,-215.9 Q622.2,-224.1 607.5,-225.0 Q599.5,-229.2 586.4,-229.7" stroke-width="2.5" />
<path d="M591.8,-227.9 Q576.0,-237.5 569.9,-242.5 Q562.1,-247.4 546.2,-253.9 Q530.4,-260.9 523.4,-267.2" stroke-width="1.5" />
<path d="M527.1,-257.3 Q531.1,-267.1 528.6,-273.4 Q523.0,-277.6 523.8,-288.9" stroke-width="0.9" />
<path d="M531.6,-253.2 Q522.5,-248.2 511.7,-252.3 Q501.6,-255.8 491.8,-250.1" stroke-width="0.9" />
<path d="M547.3,-265.7 Q536.5,-258.5 532.3,-257.0 Q527.5,-251.8 517.8,-247.5" stroke-width="0.9" />
<path d="M605.4,-223.1 Q594.4,-235.0 591.5,-238.9 Q579.0,-245.0 573.4,-249.6 Q565.0,-256.7 560.1,-265.8" stroke-width="1.5" />
<path d="M568.1,-246.4 Q558.7,-252.8 550.7,-249.4 Q547.5,-257.7 535.3,-258.2" stroke-width="0.9" />
<path d="M565.0,-244.9 Q555.4,-246.9 549.7,-257.5 Q544.1,-264.3 535.3,-271.0" stroke-width="0.9" />
<path d="M567.3,-259.8 Q570.2,-269.9 563.4,-273.0 Q554.9,-277.7 555.7,-284.4" stroke-width="0.9" />
<path d="M591.4,-226.8 Q585.0,-214.8 571.0,-208.7 Q559.6,-201.8 551.1,-190.1" stroke-width="1.5" />
<path d="M556.0,-191.3 Q560.0,-181.1 556.2,-176.0 Q553.4,-164.5 559.6,-161.0" stroke-width="0.9" />
<path d="M839.8,-36.9 Q835.2,-47.9 837.1,-57.6 Q835.1,-68.7 831.4,-77.8 Q827.2,-92.6 829.3,-98.6 Q827.7,-107.7 826.0,-119.2 Q826.4,-128.3 829.8,-139.7 Q828.1,-148.0 828.1,-160.6 Q832.3,-174.4 829.0,-181.5 Q829.0,-189.0 824.2,-201.8 Q822.4,-216.4 817.5,-221.6" stroke-width="4.2" />
<path d="M820.1,-199.2 Q815.3,-203.5 800.8,-212.2 Q790.0,-212.9 778.4,-218.7 Q766.8,-218.8 755.2,-216.6 Q748.0,-211.2 732.4,-212.3" stroke-width="2.5" />
<path d="M748.1,-217.1 Q735.1,-221.3 721.3,-229.2 Q713.6,-241.4 700.3,-249.9" stroke-width="1.5" />
<path d="M706.9,-229.2 Q703.1,-230.8 701.6,-241.1 Q701.0,-243.3 693.8,-251.7" stroke-width="0.9" />
<path d="M715.0,-245.1 Q702.4,-246.8 695.4,-239.4 Q682.9,-238.9 675.0,-241.2" stroke-width="0.9" />
<path d="M743.5,-212.7 Q733.5,-198.9 730.2,-192.3 Q723.2,-177.2 717.7,-171.5" stroke-width="1.5" />
<path d="M724.2,-175.4 Q718.8,-168.6 712.9,-160.2 Q708.0,-149.8 697.5,-149.2" stroke-width="0.9" />
<path d="M720.1,-196.1 Q711.2,-196.1 710.6,-190.3 Q701.1,-190.7 700.2,-186.2" stroke-width="0.9" />
<path d="M850.4,-38.9 Q841.2,-41.7 832.7,-49.3 Q819.1,-54.5 813.2,-56.2 Q799.8,-59.2 793.2,-60.9 Q786.5,-70.0 775.1,-70.8 Q767.1,-74.9 755.2,-76.0 Q742.9,-77.3 735.4,-82.0 Q722.4,-84.2 715.2,-85.9" stroke-width="4.2" />
<path d="M735.0,-82.4 Q725.9,-94.0 725.2,-105.2 Q717.5,-114.4 717.1,-128.6 Q714.6,-141.0 715.9,-153.4" stroke-width="2.5" />
<path d="M716.6,-127.7 Q722.9,-141.9 729.2,-150.9 Q734.2,-167.3 740.9,-174.5" stroke-width="1.5" />
<path d="M737.8,-148.1 Q740.8,-150.7 750.9,-158.2 Q757.3,-159.9 766.2,-164.5" stroke-width="0.9" />
<path d="M1150.0,105.1 Q1135.4,108.8 1130.1,107.6 Q1117.4,103.1 1110.1,105.9 Q1103.8,104.4 1092.2,96.8 Q1088.7,91.2 1078.7,81.9 Q1074.1,72.3 1066.5,66.0 Q1062.5,55.2 1058.6,47.6 Q1055.1,44.6 1044.5,33.4 Q1033.7,25.4 1032.5,17.3 Q1029.5,6.4 1026.4,-1.8 Q1016.7,-9.0 1015.2,-18.5 Q1013.5,-31.1 1006.1,-36.4 Q998.9,-47.4 997.7,-54.6 Q996.4,-65.1 985.5,-70.5 Q974.0,-75.5 971.9,-85.3 Q968.0,-92.8 963.9,-103.7 Q961.3,-110.4 949.6,-117.7 Q943.7,-128.9 935.0,-131.5 Q932.2,-141.4 920.6,-145.4 Q919.5,-151.3 912.2,-163.6 Q906.3,-169.3 898.7,-178.5 Q886.3,-182.3 883.3,-191.4 Q875.8,-195.9 872.0,-207.9 Q873.5,-215.4 865.9,-227.1" stroke-width="7.9" />
<path d="M870.8,-213.5 Q874.6,-228.1 873.1,-234.6 Q869.8,-241.6 867.0,-254.9 Q872.4,-262.1 868.5,-276.1 Q868.0,-290.8 863.8,-296.7 Q867.9,-307.2 864.2,-317.9 Q861.7,-323.5 857.5,-338.1 Q851.2,-348.7 853.8,-359.0 Q843.9,-368.2 842.7,-377.0 Q833.8,-388.1 826.8,-391.0 Q815.1,-397.2 813.0,-407.2 Q801.5,-415.5 795.7,-419.5 Q785.9,-425.2 775.2,-424.7 Q764.4,-426.8 757.9,-437.0 Q750.0,-442.8 737.4,-442.3 Q731.7,-447.6 718.2,-451.4" stroke-width="4.7" />
<path d="M732.0,-446.2 Q720.8,-446.8 712.9,-455.9 Q700.9,-465.2 697.5,-470.8 Q691.2,-475.2 679.2,-481.8 Q671.4,-489.7 660.4,-492.2 Q648.7,-498.6 641.6,-502.5 Q635.2,-502.4 620.9,-507.8 Q610.6,-516.3 602.3,-518.4 Q596.4,-527.9 585.4,-531.5 Q574.3,-538.3 566.7,-542.1 Q552.0,-541.9 546.6,-549.6" stroke-width="2.8" />
<path d="M563.2,-542.6 Q555.2,-548.6 543.4,-552.8 Q537.2,-560.0 526.3,-567.2 Q520.2,-570.1 505.0,-573.9 Q495.4,-580.6 483.1,-577.9 Q471.7,-576.6 460.9,-579.8 Q453.4,-581.0 438.7,-577.6" stroke-width="1.7" />
<path d="M441.5,-580.5 Q429.0,-588.4 419.9,-588.9 Q404.8,-586.4 396.7,-589.4 Q383.9,-590.6 373.9,-585.6" stroke-width="1.0" />
<path d="M455.5,-578.8 Q443.2,-568.7 434.9,-565.2 Q422.2,-557.6 411.3,-558.3 Q395.6,-550.1 387.7,-551.0" stroke-width="1.0" />
<path d="M559.4,-545.7 Q554.8,-555.0 549.6,-563.2 Q549.0,-576.7 539.9,-580.8 Q534.0,-587.0 530.2,-598.4 Q525.5,-609.2 521.9,-616.7 Q513.3,-629.5 513.4,-634.9 Q507.7,-647.7 504.9,-653.1 Q507.0,-658.7 502.5,-673.0 Q498.4,-685.8 495.3,-691.7" stroke-width="1.7" />
<path d="M505.0,-683.1 Q491.3,-685.8 486.0,-698.3 Q479.5,-708.8 468.7,-715.4 Q461.6,-727.8 451.6,-732.7" stroke-width="1.0" />
<path d="M503.5,-680.0 Q494.5,-691.3 488.0,-694.0 Q484.6,-701.2 479.2,-712.9 Q470.7,-721.0 465.3,-728.5 Q451.9,-731.7 446.9,-738.3" stroke-width="1.0" />
<path d="M505.7,-670.9 Q502.0,-680.1 488.9,-682.5 Q479.1,-688.0 470.3,-690.8 Q462.6,-695.5 450.1,-692.8 Q443.7,-699.5 431.7,-701.7 Q424.8,-702.5 412.2,-707.3 Q400.3,-705.1 391.9,-705.8" stroke-width="1.0" />
<path d="M869.0,-219.9 Q863.3,-229.7 860.4,-238.6 Q854.5,-245.0 850.2,-256.5 Q848.9,-260.6 838.3,-273.4 Q830.5,-278.3 832.3,-293.1 Q826.4,-299.5 825.1,-312.4 Q818.2,-319.5 813.1,-329.2 Q806.2,-340.3 796.8,-341.7 Q790.7,-350.2 781.8,-355.9 Q780.7,-364.4 773.0,-374.5" stroke-width="4.7" />
<path d="M773.7,-374.4 Q769.7,-387.9 768.6,-393.8 Q767.6,-400.3 765.7,-413.7 Q765.3,-421.3 764.7,-433.8 Q760.7,-439.2 758.0,-452.8 Q751.8,-457.4 748.6,-470.5 Q741.2,-481.1 740.5,-488.9 Q732.1,-495.9 733.6,-507.8" stroke-width="2.8" />
<path d="M734.8,-486.5 Q730.4,-497.2 732.9,-508.9 Q723.4,-516.0 722.5,-528.9 Q719.1,-537.2 712.2,-549.0" stroke-width="1.7" />
<path d="M725.4,-543.0 Q729.1,-549.9 724.2,-561.0 Q727.8,-567.9 721.9,-578.9" stroke-width="1.0" />
<path d="M743.1,-501.1 Q744.1,-515.4 743.9,-521.1 Q747.1,-531.8 747.5,-540.9 Q751.2,-549.0 754.1,-559.8" stroke-width="1.7" />
<path d="M748.5,-539.9 Q749.7,-546.8 755.9,-561.2 Q764.4,-572.6 768.7,-579.9" stroke-width="1.0" />
<path d="M749.4,-547.9 Q755.8,-558.7 758.0,-563.0 Q759.9,-576.0 760.0,-580.3" stroke-width="1.0" />
<path d="M750.7,-544.2 Q752.2,-550.7 755.2,-555.5 Q756.3,-555.5 763.2,-564.5" stroke-width="1.0" />
<path d="M734.3,-496.4 Q729.8,-512.9 724.8,-523.6 Q716.0,-539.3 715.0,-550.6" stroke-width="1.7" />
<path d="M722.5,-526.3 Q716.0,-536.1 706.1,-542.5 Q699.0,-554.7 692.3,-560.9" stroke-width="1.0" />
<path d="M721.1,-531.1 Q713.8,-532.3 707.6,-533.8 Q697.6,-531.1 693.8,-534.2" stroke-width="1.0" />
<path d="M776.0,-364.2 Q763.8,-367.2 758.3,-377.0 Q745.2,-382.7 739.2,-387.5 Q731.7,-388.8 717.5,-389.7 Q711.5,-391.1 696.3,-394.9 Q681.1,-394.4 674.5,-394.5 Q660.6,-393.9 652.9,-398.0" stroke-width="2.8" />
<path d="M653.4,-397.9 Q643.9,-389.8 632.2,-388.7 Q626.0,-383.6 610.2,-381.6 Q595.5,-383.6 587.1,-382.9 Q572.5,-382.2 564.0,-381.6" stroke-width="1.7" />
<path d="M569.3,-382.1 Q559.5,-385.1 550.6,-383.4 Q539.7,-378.0 532.3,-380.0" stroke-width="1.0" />
<path d="M571.7,-383.0 Q562.3,-390.4 551.2,-391.1 Q545.1,-394.8 530.0,-397.0 Q516.0,-392.2 508.0,-397.0" stroke-width="1.0" />
<path d="M666.7,-394.4 Q657.7,-390.3 647.5,-387.1 Q636.7,-380.0 630.0,-376.2 Q623.6,-371.6 613.8,-363.4 Q600.4,-361.9 596.1,-352.8 Q592.1,-344.4 580.3,-339.7" stroke-width="1.7" />
<path d="M584.9,-358.2 Q572.0,-356.5 566.1,-351.0 Q553.8,-353.9 546.3,-346.9 Q536.4,-341.9 528.1,-338.4 Q516.0,-340.1 508.8,-332.5" stroke-width="1.0" />
<path d="M1150.0,111.5 Q1138.8,116.3 1130.2,115.1 Q1122.0,120.9 1111.7,123.0 Q1099.9,127.1 1091.7,125.5 Q1085.2,126.6 1071.5,126.4 Q1060.7,119.4 1052.2,120.6 Q1040.1,116.6 1034.2,111.6 Q1027.3,108.7 1017.1,101.1 Q1005.2,92.8 999.1,91.9 Q993.9,93.0 979.1,89.5 Q964.6,89.5 960.0,83.2 Q953.2,85.4 940.0,80.5 Q926.7,81.1 921.7,72.1 Q912.1,68.3 901.7,69.9 Q891.2,72.0 881.6,70.6 Q872.1,70.5 862.1,65.2 Q849.7,65.7 842.0,63.9 Q832.4,57.8 823.2,56.9 Q811.5,54.0 806.3,45.8 Q799.7,47.0 786.5,42.0 Q773.8,38.6 766.4,43.6 Q760.0,43.4 746.5,41.0 Q733.6,32.9 728.5,31.8 Q719.2,23.7 714.9,17.0 Q708.5,7.6 707.5,-1.8" stroke-width="7.0" />
<path d="M709.9,2.1 Q698.7,-2.7 696.4,-14.4 Q685.1,-24.8 681.3,-29.3 Q670.9,-35.3 662.0,-38.3 Q650.3,-44.3 641.1,-42.4 Q626.3,-44.9 620.1,-39.1 Q610.0,-37.0 601.3,-29.2 Q593.0,-27.3 581.7,-21.0 Q569.6,-20.2 560.4,-20.4 Q552.0,-24.1 540.0,-26.5 Q530.5,-32.7 522.2,-38.0 Q508.4,-45.7 501.7,-43.9 Q495.0,-44.1 480.5,-45.5" stroke-width="4.2" />
<path d="M498.3,-45.2 Q488.7,-57.2 482.2,-60.1 Q478.1,-69.5 465.9,-74.7 Q452.0,-79.2 448.0,-87.2 Q436.3,-91.1 428.1,-96.4 Q422.1,-101.9 411.3,-110.4 Q402.6,-115.9 399.0,-128.4 Q386.5,-132.7 382.2,-142.5 Q373.8,-146.6 361.7,-150.0 Q354.6,-155.6 341.0,-157.0" stroke-width="2.5" />
<path d="M360.9,-150.0 Q356.5,-155.7 342.7,-160.9 Q337.1,-171.4 325.7,-173.6 Q317.5,-173.6 305.6,-180.2 Q295.0,-184.9 286.3,-188.9 Q275.1,-190.0 268.2,-200.1 Q262.1,-203.8 252.7,-214.4" stroke-width="1.5" />
<path d="M274.7,-197.0 Q263.5,-210.6 262.1,-217.5 Q257.1,-229.3 242.5,-231.7 Q227.1,-234.2 219.4,-238.5" stroke-width="0.9" />
<path d="M351.4,-150.4 Q338.4,-151.6 328.6,-155.2 Q312.2,-155.5 305.4,-155.7 Q294.9,-156.6 282.3,-153.4 Q268.0,-155.1 259.3,-150.0" stroke-width="1.5" />
<path d="M284.3,-150.3 Q272.1,-153.1 264.8,-156.3 Q252.0,-163.2 247.5,-167.3 Q237.1,-178.1 235.3,-183.7" stroke-width="0.9" />
<path d="M284.7,-152.8 Q270.6,-154.2 263.8,-162.7 Q250.6,-168.0 240.9,-165.3" stroke-width="0.9" />
<path d="M346.7,-147.5 Q340.1,-144.8 328.0,-139.3 Q322.8,-130.9 309.2,-131.4 Q304.5,-125.8 294.3,-117.4 Q288.0,-111.5 284.9,-99.3" stroke-width="1.5" />
<path d="M286.3,-99.6 Q282.6,-91.8 271.3,-84.0 Q265.1,-79.9 254.9,-69.8" stroke-width="0.9" />
<path d="M293.5,-107.7 Q290.3,-97.6 280.4,-92.5 Q270.0,-81.9 264.7,-80.0 Q250.8,-72.2 245.5,-74.0" stroke-width="0.9" />
<path d="M1150.0,142.2 Q1144.9,153.1 1135.1,156.3 Q1133.3,163.8 1124.6,174.0 Q1120.4,184.9 1118.3,193.5 Q1116.7,199.2 1106.7,210.5 Q1101.1,216.6 1090.1,222.5 Q1077.5,227.0 1074.7,236.1 Q1072.3,247.4 1061.1,251.4 Q1050.0,260.4 1044.8,264.0 Q1035.0,269.2 1031.6,279.6 Q1024.8,285.0 1013.3,289.0 Q1006.7,298.5 996.3,300.5 Q987.5,305.0 979.2,311.8 Q967.0,322.3 963.2,324.7 Q956.0,335.6 952.6,342.3 Q947.5,348.7 947.8,362.2 Q951.6,372.8 950.2,382.6 Q946.1,392.2 948.0,403.0 Q950.9,417.7 945.8,423.4 Q944.2,437.0 935.8,441.4 Q931.7,453.7 923.8,458.0 Q925.5,468.0 918.3,477.8" stroke-width="5.5" />
<path d="M918.6,454.9 Q928.3,460.8 928.0,474.7 Q931.9,486.7 940.2,492.8 Q949.6,499.9 957.7,505.9 Q968.5,511.8 972.9,521.6 Q983.2,526.9 988.2,537.3 Q994.8,543.6 1003.6,552.7 Q1008.9,555.4 1023.3,562.3 Q1038.1,566.0 1044.9,565.5 Q1053.7,565.4 1065.8,572.0 Q1080.5,576.5 1086.5,578.8" stroke-width="3.3" />
<path d="M1073.2,575.7 Q1087.8,575.0 1093.1,568.3 Q1108.4,570.1 1114.3,569.0 Q1128.6,570.9 1134.9,563.5 Q1145.3,560.5 1155.2,557.2 Q1168.5,550.1 1174.5,548.3 Q1180.5,543.2 1189.9,533.8 Q1195.1,522.0 1202.0,516.3" stroke-width="2.0" />
<path d="M1202.0,531.9 Q1200.0,521.7 1195.7,511.1 Q1194.9,500.0 1190.4,490.0 Q1187.7,482.2 1183.1,469.5 Q1177.7,455.2 1176.0,449.0 Q1172.3,441.8 1173.9,427.3" stroke-width="1.2" />
<path d="M1175.5,448.0 Q1175.2,441.5 1184.7,426.0 Q1180.7,416.7 1185.2,402.1" stroke-width="0.7" />
<path d="M1174.3,431.3 Q1167.8,425.2 1158.7,415.3 Q1148.8,407.7 1138.2,406.5 Q1129.7,403.7 1120.4,393.0" stroke-width="0.7" />
<path d="M1176.4,435.2 Q1168.7,427.2 1160.1,415.5 Q1152.3,406.0 1151.2,391.5 Q1141.6,376.1 1139.5,368.8" stroke-width="0.7" />
<path d="M1198.1,516.9 Q1203.6,506.8 1215.5,505.2 Q1226.2,498.7 1235.5,499.0 Q1242.9,498.5 1256.4,500.9 Q1270.8,506.7 1276.1,508.1" stroke-width="1.2" />
<path d="M1274.7,504.9 Q1283.8,510.4 1292.0,520.8 Q1297.4,523.0 1311.5,534.1" stroke-width="0.7" />
<path d="M1190.0,539.8 Q1188.4,526.4 1180.5,520.0 Q1173.6,514.0 1174.6,498.8 Q1173.2,490.2 1174.9,476.8 Q1176.1,463.1 1180.7,455.5 Q1182.2,443.8 1192.6,437.0" stroke-width="1.2" />
<path d="M1181.7,460.6 Q1181.8,451.8 1173.7,440.8 Q1169.1,428.9 1159.1,425.3 Q1152.8,418.7 1145.1,409.3 Q1138.7,401.3 1134.1,391.0" stroke-width="0.7" />
<path d="M1181.1,455.7 Q1186.2,449.0 1181.7,435.5 Q1176.7,424.2 1177.9,415.7 Q1183.1,410.7 1181.2,395.8" stroke-width="0.7" />
<path d="M1179.4,454.5 Q1191.5,441.2 1194.9,436.6 Q1201.2,422.3 1206.3,415.9 Q1210.2,407.1 1213.7,393.5" stroke-width="0.7" />
<path d="M1058.6,576.5 Q1068.7,573.4 1080.3,572.4 Q1095.0,571.0 1102.0,568.7 Q1111.9,566.1 1121.5,558.5 Q1127.9,557.5 1143.2,554.5 Q1150.8,554.3 1165.3,555.1 Q1179.0,559.6 1187.0,558.6 Q1197.9,559.2 1206.1,569.7" stroke-width="2.0" />
<path d="M1189.5,560.2 Q1205.2,553.6 1215.7,556.8 Q1227.3,554.2 1241.9,554.1 Q1259.8,548.0 1267.8,548.8" stroke-width="1.2" />
<path d="M1244.4,549.0 Q1251.1,534.2 1259.3,525.5 Q1268.1,515.7 1269.5,499.6" stroke-width="0.7" />
<path d="M1071.3,574.6 Q1081.7,572.6 1090.8,566.9 Q1103.3,565.5 1110.9,561.2 Q1124.8,553.0 1130.6,554.1 Q1143.8,554.6 1150.4,547.6 Q1160.1,542.8 1171.2,545.5 Q1185.8,542.9 1191.8,542.2 Q1201.1,548.2 1212.3,546.6 Q1219.7,553.6 1232.1,553.2" stroke-width="2.0" />
<path d="M1229.3,549.5 Q1243.9,556.3 1248.8,561.7 Q1264.8,564.0 1271.0,568.0 Q1282.0,572.8 1289.5,581.8 Q1299.3,590.0 1303.0,600.4 Q1306.7,613.9 1311.6,621.9" stroke-width="1.2" />
<path d="M1309.5,598.6 Q1323.3,603.7 1328.3,618.4 Q1338.0,626.6 1339.6,643.2" stroke-width="0.7" />
<path d="M1150.0,202.9 Q1139.4,203.7 1130.7,195.2 Q1115.3,196.7 1109.9,194.9 Q1102.2,193.7 1089.2,196.5 Q1078.4,193.3 1069.0,191.6 Q1054.0,186.7 1048.5,188.1 Q1039.3,184.6 1028.8,181.3 Q1016.7,179.7 1009.0,175.0 Q1004.6,169.8 990.7,165.2 Q981.3,162.7 970.3,160.9 Q956.5,159.6 950.3,155.1 Q939.6,154.4 929.6,155.0 Q923.9,155.4 908.9,152.5 Q894.2,152.6 888.3,150.0 Q874.5,155.9 867.8,153.5 Q855.7,152.0 847.5,149.3 Q832.7,142.0 827.6,143.0 Q814.4,140.9 806.8,143.4 Q798.5,139.6 786.6,138.6 Q775.5,134.7 767.8,129.6 Q762.2,127.3 749.0,120.7 Q743.8,119.9 728.5,117.3 Q718.6,117.3 709.1,109.9" stroke-width="6.9" />
<path d="M731.2,118.9 Q719.2,114.5 712.6,111.2 Q704.4,101.4 697.0,98.4 Q694.3,89.5 686.1,81.4 Q680.6,73.2 682.1,61.6 Q679.0,52.5 685.3,41.7 Q688.1,28.8 691.1,22.4 Q691.2,12.5 690.4,2.2 Q689.6,-12.2 688.1,-17.9 Q686.4,-28.6 690.1,-37.9 Q690.5,-46.1 698.9,-56.1 Q703.4,-65.8 709.3,-73.4 Q721.5,-82.6 725.2,-85.8 Q735.8,-90.4 743.3,-94.7 Q754.2,-103.2 761.1,-104.2" stroke-width="4.1" />
<path d="M746.2,-96.6 Q759.2,-93.2 768.2,-96.9 Q779.6,-97.7 790.1,-96.9 Q804.2,-99.8 812.0,-95.7 Q827.6,-95.8 833.9,-97.6 Q846.6,-102.1 855.3,-102.3 Q863.2,-102.1 877.1,-99.2 Q890.0,-90.9 896.9,-89.9 Q905.3,-87.8 918.5,-86.1 Q930.5,-84.6 940.3,-88.8 Q952.2,-89.1 962.0,-85.5" stroke-width="2.5" />
<path d="M949.3,-88.4 Q961.7,-87.9 970.7,-91.5 Q980.0,-93.8 992.4,-91.1 Q1004.1,-92.6 1013.9,-88.7 Q1021.6,-83.1 1035.2,-84.7 Q1046.1,-86.8 1056.6,-88.2 Q1067.9,-92.9 1078.3,-88.9 Q1090.6,-86.1 1099.5,-93.2" stroke-width="1.5" />
<path d="M1094.1,-87.3 Q1105.1,-88.5 1115.1,-91.6 Q1125.2,-94.1 1136.4,-94.1 Q1150.4,-96.3 1156.5,-101.3 Q1163.6,-103.1 1177.8,-103.6 Q1189.9,-104.4 1197.3,-112.5" stroke-width="0.9" />
<path d="M1087.4,-88.5 Q1096.9,-92.3 1110.3,-97.7 Q1118.0,-107.8 1129.3,-113.5 Q1142.1,-118.2 1152.8,-120.9 Q1169.6,-121.6 1177.4,-118.9" stroke-width="0.9" />
<path d="M1081.1,-92.5 Q1084.8,-102.2 1097.5,-109.7 Q1104.5,-115.9 1118.8,-120.1 Q1125.3,-123.6 1139.1,-132.6 Q1150.1,-135.2 1160.9,-142.0" stroke-width="0.9" />
<path d="M934.0,-87.8 Q936.5,-101.5 946.5,-107.1 Q951.9,-113.4 963.6,-122.5 Q974.5,-131.0 985.0,-131.1 Q996.4,-141.9 1003.3,-145.0 Q1006.9,-150.4 1016.1,-164.1 Q1019.8,-179.0 1025.9,-184.9" stroke-width="1.5" />
<path d="M1013.7,-172.8 Q1011.9,-186.6 1018.9,-192.7 Q1020.7,-203.1 1022.6,-212.9 Q1021.4,-218.2 1024.6,-233.3 Q1021.7,-240.1 1026.1,-253.9 Q1030.7,-259.5 1027.8,-274.3" stroke-width="0.9" />
<path d="M760.0,-104.0 Q766.2,-110.1 777.3,-118.3 Q788.2,-127.9 791.6,-135.6 Q797.8,-140.0 805.2,-153.5 Q817.1,-167.0 819.1,-171.1 Q828.9,-176.2 835.7,-186.2 Q842.6,-189.3 853.5,-199.7 Q857.3,-209.6 867.5,-217.3" stroke-width="2.5" />
<path d="M865.4,-203.7 Q868.4,-209.3 872.4,-223.4 Q877.2,-228.8 880.1,-242.8 Q881.4,-253.8 890.3,-261.0 Q898.2,-272.4 906.4,-274.4" stroke-width="1.5" />
<path d="M887.0,-268.2 Q896.9,-272.2 913.6,-266.3 Q930.3,-260.5 939.3,-259.5" stroke-width="0.9" />
<path d="M890.9,-262.1 Q896.5,-273.5 910.0,-276.3 Q917.5,-286.7 928.3,-291.5" stroke-width="0.9" />
<path d="M906.0,-272.3 Q913.3,-270.1 924.1,-275.3 Q932.6,-278.9 940.8,-282.9" stroke-width="0.9" />
<path d="M860.8,-209.0 Q869.9,-216.1 875.5,-223.1 Q884.7,-227.8 893.5,-232.5 Q897.4,-233.7 909.7,-244.8 Q912.2,-248.4 922.6,-260.5 Q926.2,-263.3 939.0,-272.5" stroke-width="1.5" />
<path d="M931.0,-256.1 Q929.8,-267.4 935.5,-281.3 Q935.3,-298.2 929.9,-306.3" stroke-width="0.9" />
<path d="M926.1,-266.0 Q934.7,-263.6 950.8,-260.7 Q959.0,-251.3 973.7,-250.1 Q987.6,-247.1 994.0,-235.1" stroke-width="0.9" />
<path d="M936.4,-267.7 Q940.2,-280.4 948.1,-289.8 Q946.1,-303.6 954.0,-314.2 Q956.5,-322.3 957.0,-339.1" stroke-width="0.9" />
<path d="M857.7,-205.7 Q867.0,-203.1 883.2,-204.4 Q894.1,-205.4 907.8,-211.3 Q922.4,-215.5 929.2,-225.2" stroke-width="1.5" />
<path d="M917.6,-220.1 Q925.5,-224.3 935.0,-231.9 Q949.2,-235.9 954.5,-239.8" stroke-width="0.9" />
<path d="M752.0,-98.0 Q755.2,-110.7 763.2,-114.6 Q761.8,-128.6 770.2,-133.4 Q777.2,-146.5 779.6,-151.1 Q780.9,-163.4 783.7,-170.7 Q787.7,-174.9 794.5,-187.6 Q796.0,-192.3 802.5,-206.0 Q806.2,-217.0 815.9,-220.9 Q822.7,-229.4 833.8,-229.8 Q843.8,-233.7 850.3,-241.2 Q853.2,-252.0 865.5,-254.3 Q873.3,-253.1 884.1,-261.8" stroke-width="2.5" />
<path d="M884.0,-253.2 Q897.8,-245.2 905.0,-246.8 Q911.9,-241.9 925.9,-240.0 Q937.5,-236.3 943.2,-226.3 Q949.3,-223.8 959.8,-211.9 Q967.2,-205.6 970.4,-192.7 Q977.5,-183.6 987.1,-178.4 Q989.2,-168.0 1000.7,-161.1" stroke-width="1.5" />
<path d="M983.6,-179.7 Q995.1,-182.9 1006.5,-178.3 Q1022.4,-178.6 1029.4,-178.9 Q1041.0,-183.9 1052.3,-180.4" stroke-width="0.9" />
<path d="M991.5,-180.5 Q1003.8,-178.6 1010.1,-167.3 Q1014.7,-161.7 1022.3,-148.0 Q1029.6,-140.5 1040.5,-134.1 Q1055.6,-130.7 1062.4,-127.8" stroke-width="0.9" />
<path d="M870.2,-257.1 Q874.7,-265.1 882.4,-276.4 Q890.6,-288.5 899.5,-291.5 Q909.8,-298.3 917.8,-305.0 Q926.0,-315.5 933.1,-322.0" stroke-width="1.5" />
<path d="M924.2,-302.0 Q922.2,-315.8 922.1,-324.8 Q923.4,-339.5 915.0,-346.5" stroke-width="0.9" />
<path d="M638.5,280.0 Q635.4,274.0 622.7,265.8 Q609.9,260.0 604.1,255.7 Q598.9,249.3 587.0,243.1 Q575.1,240.4 570.5,229.8 Q564.5,222.6 550.3,223.2 Q539.2,215.4 533.5,210.3" stroke-width="7.3" />
<path d="M545.4,223.3 Q540.3,215.8 525.9,210.4 Q516.8,207.4 504.2,201.7 Q497.1,194.5 481.8,194.8 Q467.1,190.8 458.6,192.1" stroke-width="4.4" />
<path d="M468.5,195.1 Q462.5,204.7 452.1,205.9 Q450.1,213.3 439.4,221.0" stroke-width="2.6" />
<path d="M451.8,217.1 Q442.6,216.6 437.5,218.5 Q434.5,220.4 423.8,214.4" stroke-width="1.6" />
<path d="M445.7,219.6 Q445.9,213.4 439.6,216.1 Q436.5,210.6 435.1,210.6" stroke-width="0.9" />
<path d="M456.9,212.9 Q450.2,219.4 450.6,220.5 Q443.7,223.1 442.6,226.4" stroke-width="1.6" />
<path d="M451.8,215.2 Q454.0,220.9 447.0,217.4 Q445.3,219.4 442.7,220.4" stroke-width="0.9" />
<path d="M464.7,215.2 Q462.2,215.0 459.9,220.0 Q458.2,218.8 456.1,225.6" stroke-width="0.9" />
<path d="M447.1,219.4 Q445.1,214.2 435.4,216.5 Q426.3,214.3 425.0,210.6" stroke-width="1.6" />
<path d="M428.1,216.3 Q428.4,214.7 421.6,210.2 Q416.9,206.1 417.2,202.5" stroke-width="0.9" />
<path d="M442.3,217.0 Q434.9,216.8 437.1,214.5 Q437.6,211.4 431.7,212.4" stroke-width="0.9" />
<path d="M464.0,195.1 Q454.8,189.1 441.5,186.9 Q425.0,181.6 418.2,181.7 Q404.1,177.2 394.4,181.0" stroke-width="2.6" />
<path d="M399.1,181.3 Q387.8,170.9 386.3,158.2 Q379.3,148.1 371.3,136.5" stroke-width="1.6" />
<path d="M382.5,154.7 Q382.0,149.1 383.6,140.1 Q390.7,136.6 388.4,126.3" stroke-width="0.9" />
<path d="M375.4,147.7 Q367.2,150.2 360.6,145.5 Q353.5,148.7 346.1,142.3" stroke-width="0.9" />
<path d="M378.8,143.3 Q380.6,139.4 379.2,128.5 Q385.0,122.9 380.8,113.8" stroke-width="0.9" />
<path d="M448.5,280.0 Q449.7,273.8 449.8,257.8 Q447.9,244.2 446.6,235.9 Q448.9,223.3 442.1,214.1 Q438.9,205.7 434.9,193.1 Q427.5,185.3 428.2,171.9 Q426.7,162.3 427.9,149.7 Q428.4,135.6 433.7,128.3 Q443.0,119.9 445.7,109.6" stroke-width="5.1" />
<path d="M444.4,112.1 Q450.3,107.7 455.1,94.5 Q455.1,79.7 460.4,74.7 Q466.5,63.1 464.4,54.5 Q463.5,48.2 461.2,34.2 Q460.6,26.6 452.5,15.5" stroke-width="3.1" />
<path d="M455.4,32.6 Q450.9,23.4 439.4,8.3 Q428.0,-4.1 419.9,-13.2" stroke-width="1.8" />
<path d="M419.9,5.8 Q406.6,5.7 400.2,6.4 Q394.7,-0.4 381.4,0.2" stroke-width="1.1" />
<path d="M390.7,6.0 Q387.8,4.5 388.9,-3.6 Q389.2,-8.9 384.4,-12.2" stroke-width="0.7" />
<path d="M392.8,8.6 Q389.9,1.7 380.2,4.8 Q371.8,0.9 367.6,1.4" stroke-width="0.7" />
<path d="M400.9,7.1 Q402.2,7.7 398.0,-0.7 Q400.4,-2.5 393.0,-7.3" stroke-width="0.7" />
<path d="M421.2,2.1 Q418.0,-2.6 413.7,-13.5 Q406.2,-22.4 404.7,-28.3" stroke-width="1.1" />
<path d="M414.6,-25.1 Q420.2,-34.1 416.2,-38.0 Q421.3,-39.7 416.3,-51.0" stroke-width="0.7" />
<path d="M405.6,-21.0 Q406.4,-30.2 403.9,-31.7 Q402.5,-40.3 402.9,-42.5" stroke-width="0.7" />
<path d="M436.3,-12.1 Q435.7,-15.1 432.5,-26.5 Q433.6,-29.5 433.1,-41.4" stroke-width="1.1" />
<path d="M432.6,-28.7 Q431.7,-35.5 438.5,-36.0 Q438.9,-35.6 443.2,-44.2" stroke-width="0.7" />
<path d="M432.1,-34.4 Q428.0,-38.9 433.3,-45.6 Q434.5,-51.2 431.9,-56.7" stroke-width="0.7" />
<path d="M432.1,-12.7 Q435.0,-13.7 434.5,-23.1 Q435.5,-27.2 440.8,-31.7" stroke-width="0.7" />
<path d="M457.9,28.5 Q459.8,15.7 468.5,10.6 Q469.4,4.9 474.4,-9.4" stroke-width="1.8" />
<path d="M467.9,3.1 Q465.9,-3.2 464.7,-7.3 Q460.7,-11.3 463.4,-18.0" stroke-width="1.1" />
<path d="M464.4,-4.8 Q466.8,-4.1 465.1,-13.0 Q465.6,-21.3 465.6,-21.1" stroke-width="0.7" />
<path d="M469.7,16.7 Q472.9,13.3 481.5,10.8 Q487.3,9.3 492.6,3.6" stroke-width="1.1" />
<path d="M490.4,9.1 Q488.9,6.6 491.6,2.5 Q492.5,-0.5 491.8,-4.3" stroke-width="0.7" />
<path d="M471.9,18.1 Q474.9,13.1 480.5,16.5 Q483.0,11.9 489.2,15.1" stroke-width="0.7" />
<path d="M791.6,280.0 Q797.8,271.6 795.9,258.3 Q796.7,250.4 795.0,236.2 Q789.5,221.2 787.4,215.5 Q790.7,202.9 787.5,193.4 Q788.3,185.3 782.6,171.8 Q774.1,161.2 772.3,152.3" stroke-width="6.9" />
<path d="M774.5,163.2 Q762.9,157.6 756.3,148.0 Q750.3,139.4 740.2,130.4 Q737.5,117.0 731.3,108.4 Q730.8,92.5 730.5,84.7" stroke-width="4.2" />
<path d="M731.0,95.3 Q721.4,84.4 719.2,76.8 Q712.3,71.3 710.1,56.9 Q704.9,45.0 707.3,35.2" stroke-width="2.5" />
<path d="M710.9,57.6 Q722.6,46.4 726.9,43.3 Q739.3,41.7 747.1,36.0" stroke-width="1.5" />
<path d="M721.8,40.1 Q726.4,40.6 730.2,42.9 Q735.7,43.7 738.9,44.2" stroke-width="0.9" />
<path d="M737.3,44.1 Q742.8,44.7 750.2,42.7 Q756.9,42.3 763.1,42.8" stroke-width="0.9" />
<path d="M731.0,90.3 Q733.9,76.5 728.0,68.8 Q730.5,54.8 725.2,47.2" stroke-width="2.5" />
<path d="M728.7,68.9 Q735.5,69.4 741.9,62.5 Q745.4,59.3 756.1,58.7" stroke-width="1.5" />
<path d="M755.2,64.4 Q755.2,63.9 760.4,55.7 Q759.4,50.1 764.2,46.4" stroke-width="0.9" />
<path d="M753.2,61.2 Q760.1,67.4 761.8,65.1 Q771.2,61.7 771.1,66.8" stroke-width="0.9" />
<path d="M736.4,63.9 Q738.3,59.2 742.1,61.8 Q745.3,63.9 748.0,60.2" stroke-width="0.9" />
<path d="M729.0,61.1 Q726.1,56.2 725.4,46.2 Q718.6,37.8 716.8,33.6" stroke-width="1.5" />
<path d="M726.2,44.3 Q731.2,43.5 726.9,33.6 Q721.0,27.8 724.1,23.4" stroke-width="0.9" />
<path d="M776.3,172.5 Q768.4,171.4 754.8,163.7 Q747.4,160.9 737.5,148.2 Q726.6,146.1 716.6,138.2 Q710.6,126.7 699.5,122.5" stroke-width="4.2" />
<path d="M717.2,137.8 Q705.9,144.2 696.3,141.9 Q686.8,142.3 675.4,138.3" stroke-width="2.5" />
<path d="M694.4,138.8 Q689.3,133.9 687.7,127.5 Q685.3,119.1 685.9,114.6" stroke-width="1.5" />
<path d="M687.5,125.5 Q689.6,119.6 691.7,116.7 Q688.2,115.2 693.2,107.1" stroke-width="0.9" />
<path d="M689.5,124.9 Q689.8,125.8 688.0,117.4 Q691.1,118.6 689.1,109.9" stroke-width="0.9" />
<path d="M235.8,280.0 Q247.6,272.4 252.4,267.7 Q257.6,261.4 266.3,252.3 Q274.6,243.4 275.7,233.8 Q274.3,224.4 279.8,213.6 Q286.1,205.1 285.7,193.7 Q288.9,182.7 297.5,176.7 Q301.2,165.2 301.8,156.5" stroke-width="5.9" />
<path d="M300.0,164.0 Q305.3,150.3 311.6,145.0 Q320.5,136.6 325.5,127.6 Q335.4,116.9 342.0,112.7" stroke-width="3.5" />
<path d="M324.6,124.1 Q326.8,117.4 326.8,102.1 Q330.9,88.7 336.8,82.3" stroke-width="2.1" />
<path d="M324.1,103.5 Q326.4,95.7 327.5,95.1 Q326.8,87.0 333.3,88.1" stroke-width="1.3" />
<path d="M325.0,93.1 Q326.2,96.2 329.9,92.0 Q329.3,89.8 334.0,89.2" stroke-width="0.8" />
<path d="M317.8,88.8 Q313.0,81.2 318.0,83.4 Q319.1,81.9 316.3,78.3" stroke-width="0.8" />
<path d="M332.1,102.1 Q333.2,99.4 331.3,95.7 Q331.4,89.0 332.3,89.4" stroke-width="0.8" />
<path d="M336.0,107.8 Q338.8,99.1 339.1,93.5 Q345.2,90.3 345.3,80.2" stroke-width="1.3" />
<path d="M340.2,93.8 Q345.1,87.1 344.5,83.8 Q350.4,75.1 351.8,75.6" stroke-width="0.8" />
<path d="M338.2,98.0 Q338.7,91.7 335.7,90.0 Q337.7,84.3 335.3,81.6" stroke-width="0.8" />
<path d="M333.7,88.8 Q329.1,87.8 331.8,80.4 Q332.0,80.1 330.2,71.9" stroke-width="0.8" />
<path d="M321.9,122.8 Q318.6,108.7 320.5,97.9 Q323.0,89.5 327.5,73.9" stroke-width="2.1" />
<path d="M319.2,75.0 Q320.9,70.3 317.9,64.3 Q314.2,54.9 315.2,53.8" stroke-width="1.3" />
<path d="M317.6,60.8 Q317.1,56.4 315.1,57.1 Q318.1,59.2 311.4,54.6" stroke-width="0.8" />
<path d="M321.1,76.9 Q325.0,71.6 323.8,70.4 Q325.8,71.4 326.0,63.7" stroke-width="0.8" />
<path d="M299.4,163.6 Q302.4,148.4 302.8,139.5 Q311.2,131.1 311.5,116.8 Q312.2,106.7 321.8,94.8 Q332.7,83.3 337.7,76.4" stroke-width="3.5" />
<path d="M322.0,86.8 Q322.2,71.2 325.6,63.8 Q332.4,53.4 329.3,40.7" stroke-width="2.1" />
<path d="M327.0,43.5 Q321.4,34.9 320.6,30.7 Q318.8,22.6 311.9,19.3" stroke-width="1.3" />
<path d="M323.7,40.2 Q327.4,40.0 323.7,34.4 Q327.4,35.2 325.7,29.0" stroke-width="0.8" />
<path d="M328.8,52.0 Q337.8,42.3 337.0,38.8 Q336.0,33.5 344.3,25.0" stroke-width="1.3" />
<path d="M342.1,32.3 Q347.5,25.5 348.1,26.4 Q351.9,23.5 354.8,21.3" stroke-width="0.8" />
<path d="M335.7,47.9 Q338.3,44.6 338.2,41.5 Q341.0,38.8 340.1,34.8" stroke-width="0.8" />
<path d="M334.8,42.4 Q334.8,34.5 334.3,34.0 Q330.3,34.3 333.5,25.7" stroke-width="0.8" />
<path d="M324.6,50.4 Q318.3,43.3 320.4,32.8 Q315.1,26.8 312.0,16.7" stroke-width="1.3" />
<path d="M320.3,39.1 Q315.2,38.8 316.2,30.5 Q314.3,24.9 309.0,24.2" stroke-width="0.8" />
<path d="M315.9,35.1 Q317.6,34.9 310.0,28.4 Q309.9,23.0 303.5,22.4" stroke-width="0.8" />
<path d="M300.7,175.2 Q292.4,163.7 290.7,156.8 Q286.9,146.5 280.2,138.6 Q275.3,131.4 276.0,118.0" stroke-width="3.5" />
<path d="M279.9,141.6 Q284.2,127.3 285.2,120.3 Q284.1,106.2 282.3,98.6" stroke-width="2.1" />
<path d="M283.3,126.1 Q277.9,120.0 277.7,110.7 Q275.8,101.3 271.3,95.7" stroke-width="1.3" />
<path d="M281.9,100.7 Q275.0,97.1 277.0,94.6 Q274.3,94.6 272.1,88.5" stroke-width="0.8" />
<path d="M282.3,115.7 Q278.4,111.8 281.8,106.5 Q285.5,99.1 280.1,97.5" stroke-width="0.8" />
<path d="M278.3,124.3 Q275.9,113.6 277.3,100.0 Q274.3,87.2 279.4,75.8" stroke-width="2.1" />
<path d="M276.9,86.6 Q286.0,84.2 292.0,77.3 Q303.8,71.8 306.3,66.7" stroke-width="1.3" />
<path d="M287.8,80.6 Q296.8,75.8 301.7,78.8 Q311.0,75.6 314.1,72.3" stroke-width="0.8" />

  </g>
</svg>
